<svg xmlns="http://www.w3.org/2000/svg" xmlns:xlink="http://www.w3.org/1999/xlink" viewBox="0 0 2070.36 750"><defs><style>.cls-1{fill:none;}.cls-2{clip-path:url(#clip-path);}.cls-3{fill:#fff;}.cls-4{clip-path:url(#clip-path-2);}.cls-5,.cls-6,.cls-7,.cls-8{opacity:0.075;}.cls-5{fill:url(#linear-gradient);}.cls-6{fill:url(#linear-gradient-2);}.cls-7{fill:url(#linear-gradient-3);}.cls-8{fill:url(#linear-gradient-4);}.cls-9{fill:url(#linear-gradient-5);}</style><clipPath id="clip-path"><rect class="cls-1" width="2071.78" height="749.22"/></clipPath><clipPath id="clip-path-2" ><rect class="cls-1" y="-16.68" width="2071.78" height="1313.35" transform="translate(2071.78 1280) rotate(180)"/></clipPath><linearGradient id="linear-gradient" x1="10768.68" y1="987.76" x2="10761.45" y2="327.58" gradientTransform="matrix(-1, 0, 0, 1, 12878.25, 0)" gradientUnits="userSpaceOnUse"><stop offset="0.02" stop-color="#0171fb"/><stop offset="0.6" stop-color="#0171fb"/></linearGradient><linearGradient id="linear-gradient-2" x1="11342.52" y1="640" x2="12878.24" y2="640" xlink:href="#linear-gradient"/><linearGradient id="linear-gradient-3" x1="14177.68" y1="2422.56" x2="13054.83" y2="3837.12" gradientTransform="translate(14460.75 3558.73) rotate(180)" xlink:href="#linear-gradient"/><linearGradient id="linear-gradient-4" x1="12859.88" y1="2587.18" x2="12387.75" y2="3181.96" gradientTransform="translate(14460.75 3558.73) rotate(180)" xlink:href="#linear-gradient"/><linearGradient id="linear-gradient-5" y1="818.94" x2="2071.78" y2="818.94" gradientUnits="userSpaceOnUse"><stop offset="0.02" stop-color="#0171fb"/><stop offset="0.8" stop-color="#0171fb"/></linearGradient></defs><g id="Layer_2" data-name="Layer 2"><g id="desktop"><g class="cls-2"><rect class="cls-3" y="-16.68" width="2071.78" height="1313.35" transform="translate(2070.78 1290.71) rotate(180)"/><g class="cls-4"><path class="cls-5" d="M2363.36,645.22,2125.78,327.68a417.87,417.87,0,0,0-100.51,60.08c-179,144.14-215.26,408.37-85.08,598.14Z" /><path class="cls-6" d="M0-16.68V1296.67H711.69c1.79-49-2.76-94.84-38.76-147.19-56.15-81.64-140-152.8-206.77-225.48C369.69,819,256.32,743.54,224,592.59c-26.14-122.11,5.38-270.78,110.59-343.73,102.47-71,249.8-32.64,358.64.66,305.69,93.54,641.23-.3,842.48-266.2Z" /><path class="cls-7" d="M1667.57-70.71l2.42,2.32c-301.24,338.1-403.65,323.15-651,287C938.59,206.88,838.59,192.27,711.76,188c-75.85-2.55-140.55,5.78-197.72,25.5C380.89,259.41,298.27,376.72,298.43,519.66c.07,65.4,16.29,133.67,46.89,197.43,29.13,60.68,75.19,107,119.73,151.87,26.47,26.65,53.84,54.21,77.73,84.72,47.53,60.69,80.83,134.36,96.3,213,16.4,83.49,14.77,171.11-4.6,246.75l-3.18-.87c19.24-75.14,20.86-162.22,4.55-245.19-15.36-78.14-48.42-151.3-95.62-211.57-23.77-30.35-51.07-57.84-77.47-84.42-44.74-45-91-91.6-120.38-152.8-30.83-64.23-47.17-133-47.24-199-.16-144.45,83.32-263,217.87-309.4,57.54-19.84,122.58-28.22,198.86-25.67,127,4.28,227.1,18.9,307.54,30.65C1265.58,251.19,1367.5,266.08,1667.57-70.71Z" /><path class="cls-8" d="M2165,449.82l0,3.41c-184.16,1.09-327.33,54.62-425.54,159.11C1598.75,762.1,1601,966.91,1601,969l-3.29.06c0-2.06-2.3-208.24,139.42-359C1836,504.81,1979.94,450.92,2165,449.82Z" /></g></g></g></g></svg>