<svg xmlns="http://www.w3.org/2000/svg" xmlns:xlink="http://www.w3.org/1999/xlink" viewBox="0 0 2071 1422"><defs><style>.cls-1{fill:none;}.cls-2{clip-path:url(#clip-path);}.cls-3{fill:#fff;}.cls-4{clip-path:url(#clip-path-2);}.cls-5,.cls-6,.cls-7,.cls-8{opacity:0.075;}.cls-5{fill:url(#linear-gradient);}.cls-6{fill:url(#linear-gradient-2);}.cls-7{fill:url(#linear-gradient-3);}.cls-8{fill:url(#linear-gradient-4);}</style><clipPath id="clip-path" ><rect class="cls-1" width="2071.78" height="1428.97"/></clipPath><clipPath id="clip-path-2"><rect class="cls-1" width="2071" height="1428.97" transform="translate(2071 1422) rotate(180)"/></clipPath><linearGradient id="linear-gradient" x1="15812.71" y1="1092.69" x2="15804.86" y2="374.58" gradientTransform="matrix(-1, 0, 0, 1, 17921.99, 0)" gradientUnits="userSpaceOnUse"><stop offset="0.02" stop-color="#0171fb"/><stop offset="0.6" stop-color="#0171fb"/></linearGradient><linearGradient id="linear-gradient-2" x1="16386.27" y1="714.48" x2="17921.99" y2="714.48" xlink:href="#linear-gradient"/><linearGradient id="linear-gradient-3" x1="19245.07" y1="-3535.11" x2="18058.62" y2="-2040.44" gradientTransform="translate(19504.5 -2275.2) rotate(180)" xlink:href="#linear-gradient"/><linearGradient id="linear-gradient-4" x1="17921.92" y1="-3335.67" x2="17427.54" y2="-2712.85" gradientTransform="translate(19504.5 -2275.2) rotate(180)" xlink:href="#linear-gradient"/></defs><g id="Layer_2" data-name="Layer 2"><g id="desktop"><g class="cls-2"><rect class="cls-3" width="2071.78" height="1428.97" transform="translate(2071 1422) rotate(180)"/><g class="cls-4"><path class="cls-5" d="M2363.36,720.17l-237.57-345.5A412.45,412.45,0,0,0,2025.27,440c-179,156.83-215.26,444.32-85.08,650.8Z"/><path class="cls-6" d="M0,0V1429H711.69c1.79-53.3-2.76-103.19-38.76-160.15-56.15-88.83-140-166.26-206.77-245.34C369.69,909.23,256.32,827.15,224,662.9c-26.14-132.86,5.38-294.61,110.59-374,102.47-77.29,249.8-35.52,358.64.72C998.93,391.4,1334.47,289.31,1535.72,0Z" /><path class="cls-7" d="M1667.57-58.79l2.42,2.52C1368.75,311.59,1266.34,295.33,1019,256c-80.36-12.77-180.36-28.66-307.19-33.3C635.91,219.92,571.21,229,514,250.44,380.89,300.39,298.27,428,298.43,583.55c.07,71.16,16.29,145.44,46.89,214.81,29.13,66,75.19,116.46,119.73,165.25,26.47,29,53.84,59,77.73,92.17,47.53,66,80.83,146.19,96.3,231.79,16.4,90.83,14.77,186.17-4.6,268.47l-3.18-1c19.24-81.76,20.86-176.5,4.55-266.78-15.36-85-48.42-164.62-95.62-230.19-23.77-33-51.07-62.93-77.47-91.85-44.74-49-91-99.67-120.38-166.25-30.83-69.88-47.17-144.74-47.24-216.46C295,426.38,378.46,297.39,513,246.91,570.55,225.32,635.59,216.2,711.87,219c127,4.66,227.11,20.57,307.54,33.35C1265.58,291.45,1367.5,307.65,1667.57-58.79Z" /><path class="cls-8" d="M2165,507.56l0,3.71c-184.16,1.19-327.33,59.44-425.54,173.13-140.76,162.93-138.55,385.78-138.51,388l-3.29.07c0-2.24-2.3-226.57,139.42-390.64C1836,567.39,1979.94,508.76,2165,507.56Z" /></g></g></g></g></svg>