<svg xmlns="http://www.w3.org/2000/svg" viewBox="0 0 334.9 379.11"><defs><style>.cls-1{fill:#006eba;}.cls-2{fill:#fff;}.cls-3{fill:#16a1dc;}.cls-4{fill:#0061b4;}.cls-5{fill:#1098d9;}</style></defs><g id="Layer_2" data-name="Layer 2"><g id="desktop"><path class="cls-1" d="M167.54,0H329.63c.84,0,1.69,0,2.54,0,2.8.06,2.88.07,2.65,2.81C334,13.43,333,24,332.1,34.66q-1.23,14.3-2.45,28.59-1.69,19.53-3.41,39.07-1.61,18.65-3.18,37.28c-1.1,12.78-2.24,25.56-3.35,38.35q-1.23,14.3-2.45,28.59-1.69,19.53-3.41,39.07c-.82,9.53-1.6,19.06-2.43,28.59q-1.59,18.46-3.22,36.9c-.78,8.93-1.55,17.85-2.36,26.78-.27,2.95-.31,3-3.21,3.77L185.92,374.34c-5,1.4-10,2.76-15,4.24a11.58,11.58,0,0,1-6.7.07q-51-14.38-102-28.64c-10-2.8-20-5.64-30.07-8.36-2-.54-2.94-1.39-3.08-3.61-.48-7-1.22-14-1.84-21q-2.09-23.88-4.16-47.76C22,256.76,21,244.21,19.88,231.66q-1.57-18.45-3.2-36.9l-2.61-30q-1.65-19-3.3-38Q9.5,112.07,8.25,97.42,6.65,78.79,5.05,60.15c-.82-9.53-1.7-19-2.52-28.58C1.73,22.28,1,13,.17,3.7-.19-.38-.37,0,3.63,0H167.54Z"/><path class="cls-2" d="M167.6,306c-12-3.36-24-6.75-36-10.08q-23.78-6.6-47.56-13.14c-3-.84-3.09-.85-3.38-4.05q-1.32-14.1-2.53-28.22-1.32-15.19-2.61-30.39c-.23-2.63-.25-2.69,2.26-2.7,12.84,0,25.68,0,38.52,0,1.83,0,2.48.52,2.6,2.42.58,9.42,1.37,18.84,2,28.26.11,1.84.66,2.8,2.48,3.3,14.24,3.88,28.45,7.83,42.68,11.74a6.24,6.24,0,0,0,1.44.08c1.6-1.45,3.69-1.76,5.65-2.32,11.43-3.21,22.89-6.3,34.31-9.51,5.15-1.45,5.16-1.46,5.64-6.76,1.29-14.45,2.06-28.95,3.19-43.41.27-3.39-1.9-3.08-3.94-3.08-13,0-25.92,0-38.88,0-2.16,0-4.38.27-6.41-.82-1.45,0-2.9-.13-4.35-.13H76.94c-3.44,0-3.48,0-3.75-3.21q-1.59-18.63-3.14-37.26c-.35-4.2-.65-3.42,3.22-5.35q36.49-18.28,73-36.52a8.62,8.62,0,0,0,3.06-2.28H70.43c-4.39,0-4.31,0-4.66-4.23C64.93,98.09,64,88,63.14,77.84c-.23-2.64-.71-5.29-.24-8,1.16-1,2.55-.49,3.82-.49q48.38,0,96.75,0a19.54,19.54,0,0,0,4-.14,11.69,11.69,0,0,1,4.66-.53h95.21a12.33,12.33,0,0,1,4.32.39c2.23,1.53,1.7,3.91,1.52,6-.8,8.8-1.55,17.6-2.41,26.39-.23,2.29-.35,4.58-.49,6.88A7.37,7.37,0,0,1,266,115c-25.68,12.83-51.31,25.74-77,38.47a2.26,2.26,0,0,1-1,.25q36.15,0,72.29,0c5.23,0,6,1.12,5.49,6.37-1.24,13.12-2.34,26.26-3.44,39.39-1,12.42-2.24,24.82-3.29,37.23-1.07,12.66-2.29,25.3-3.18,38-.5,7.16-.86,8-7.65,9.85q-37.8,10.51-75.64,20.87C171,305.88,169.33,306.69,167.6,306Z"/><path class="cls-3" d="M167.6,306c8.48-2.41,17-4.86,25.46-7.22q28.84-8,57.72-15.94c2.24-.61,3.44-1.41,3.59-4,.39-6.76,1.15-13.51,1.74-20.26q1.8-20.44,3.57-40.88c.82-9.53,1.57-19.07,2.4-28.6q1.29-14.82,2.68-29.65c.43-4.56.48-4.56-4.12-4.56H184.9a12.66,12.66,0,0,1,3.85-2.38q38.49-19.24,77-38.43a5.43,5.43,0,0,0,3.42-4.94c.94-11.46,2-22.91,2.92-34.38.13-1.56,0-3.14.05-4.71-1.05-1.31-2.49-.59-3.7-.59-33.45-.07-66.89,0-100.33-.07l-.65-.3q0-16.89,0-33.79c0-.85,0-1.7,0-2.54.08-2.92.09-2.92,3.16-3H298.22c3.8,0,3.71,0,3.22,3.74-.44,3.22-.44,6.49-.7,9.73-.31,4-.67,7.94-1.06,11.88-.65,6.71-1,13.44-1.83,20.14-.44,3.44-.62,7-1,10.43-.43,4.68-.54,9.38-1.28,14-.46,2.85-.48,5.77-.67,8.64-.28,4.08-.79,8.16-1.07,12.25-.27,3.94-.52,7.91-1.11,11.85-.52,3.44-.47,7-.88,10.45-.87,7.53-1.39,15.1-2.06,22.65-.35,3.95-.76,7.92-1,11.89s-.52,8.16-1.15,12.21c-.54,3.45-.41,7-.84,10.45-.94,7.64-1.47,15.34-2.11,23-.33,4.08-.72,8.17-1,12.25a101,101,0,0,1-1.13,11.86,69.59,69.59,0,0,0-.72,9.36c-.41,6.74-1.45,13.41-1.75,20.17-.29,6.48-1.32,12.92-2,19.38-.32,3.24-.45,6.5-.67,9.74-.27,3.84-1.11,7.64-1,11.53.1,2.57-.48,3.16-2.94,3.83-11.75,3.2-23.51,6.35-35.27,9.53l-46.43,12.59c-7.22,1.95-14.44,3.89-21.67,5.77-2.56.67-2.67.58-2.68-2.05q0-13.81,0-27.62C167.52,314.91,167.57,310.43,167.6,306Z"/><path class="cls-3" d="M167,197.2l34.1-.13c4.6,0,9.19,0,13.79,0,2.67,0,2.73.07,2.55,2.59q-1.56,22.07-3.18,44.13c0,.36,0,.73-.08,1.09-.26,1.88.61,4.3-.78,5.54s-3.56,1.32-5.42,1.84l-37,10.24c-1.15.32-2.27.87-3.52.62q0-31.37.05-62.74A8.21,8.21,0,0,0,167,197.2Z"/><path class="cls-4" d="M167.44,69.79c-1,.06-1.93.17-2.89.17H65.07c-.72,0-1.45,0-2.17-.08.8-1.38,2.15-.86,3.28-.87,7.86,0,15.73,0,23.59,0l77.69,0,.09,0c.21.21.26.41.16.57S167.52,69.79,167.44,69.79Z"/><path class="cls-5" d="M167.44,69.79c0-.27.07-.54.11-.81q50.14,0,100.28.06c1.44,0,3.2-.82,4.31.94H170.68C169.6,70,168.52,69.86,167.44,69.79Z"/></g></g></svg>