<svg xmlns="http://www.w3.org/2000/svg" xmlns:xlink="http://www.w3.org/1999/xlink" viewBox="0 0 2075 790"><defs><style>.cls-1{fill:none;}.cls-2{clip-path:url(#clip-path);}.cls-3{fill:#fff;}.cls-4{clip-path:url(#clip-path-2);}.cls-5,.cls-6,.cls-7,.cls-8{opacity:0.075;}.cls-5{fill:url(#linear-gradient);}.cls-6{fill:url(#linear-gradient-2);}.cls-7{fill:url(#linear-gradient-3);}.cls-8{fill:url(#linear-gradient-4);}.cls-9{fill:url(#linear-gradient-5);}</style><clipPath id="clip-path" ><rect class="cls-1" width="2071.78" height="794.07"/></clipPath><clipPath id="clip-path-2" ><rect class="cls-1" width="2071.78" height="1345.69" transform="translate(2071 1340) rotate(180)"/></clipPath><linearGradient id="linear-gradient" x1="15812.33" y1="1045.52" x2="15805.31" y2="403.85" gradientTransform="matrix(-1, 0, 0, 1, 17921.99, 0)" gradientUnits="userSpaceOnUse"><stop offset="0.02" stop-color="#0171fb"/><stop offset="0.6" stop-color="#0171fb"/></linearGradient><linearGradient id="linear-gradient-2" x1="16386.27" y1="672.85" x2="17921.99" y2="672.85" xlink:href="#linear-gradient"/><linearGradient id="linear-gradient-3" x1="19213.93" y1="-430.91" x2="18077.65" y2="1000.57" gradientTransform="translate(19504.5 756.98) rotate(180)" xlink:href="#linear-gradient"/><linearGradient id="linear-gradient-4" x1="17897.85" y1="-277.38" x2="17432.84" y2="308.44" gradientTransform="translate(19504.5 756.98) rotate(180)" xlink:href="#linear-gradient"/><linearGradient id="linear-gradient-5" y1="846.59" x2="2071.78" y2="846.59" gradientUnits="userSpaceOnUse"><stop offset="0.02" stop-color="#0171fb"/><stop offset="0.8" stop-color="#0171fb"/></linearGradient></defs><g id="Layer_2" data-name="Layer 2"><g id="desktop"><g class="cls-2"><rect class="cls-3" width="2071.78" height="1345.69" transform="translate(2071 1340) rotate(180)"/><g class="cls-4"><path class="cls-5" d="M2363.36,712.56,2125.78,404a420.62,420.62,0,0,0-100.51,58.39c-179,140.08-215.26,396.89-85.08,581.32Z" /><path class="cls-6" d="M0,0V1345.69H711.69c1.79-47.6-2.76-92.17-38.76-143-56.15-79.35-140-148.51-206.77-219.14C369.69,881.44,256.32,808.12,224,661.41c-26.14-118.68,5.38-263.16,110.59-334.06,102.47-69,249.8-31.73,358.64.64,305.69,90.9,641.23-69.57,842.48-328Z" /><path class="cls-7" d="M1667.57-52.51l2.42,2.25C1368.75,278.33,1266.34,333.08,1019,298c-80.36-11.41-180.36-25.6-307.19-29.75C635.91,265.72,571.21,273.82,514,293,380.89,337.6,298.27,451.61,298.43,590.53c.07,63.56,16.29,129.91,46.89,191.88,29.13,59,75.19,104,119.73,147.6,26.47,25.9,53.84,52.68,77.73,82.33,47.53,59,80.83,130.58,96.3,207.05,16.4,81.13,14.77,166.3-4.6,239.81l-3.18-.85c19.24-73,20.86-157.66,4.55-238.3-15.36-75.94-48.42-147-95.62-205.62-23.77-29.5-51.07-56.21-77.47-82-44.74-43.77-91-89-120.38-148.5-30.83-62.42-47.17-129.29-47.24-193.36C295,450.14,378.46,334.92,513,289.83c57.54-19.28,122.58-27.43,198.86-24.95,127,4.16,227.1,18.37,307.54,29.79C1265.58,329.61,1367.5,274.81,1667.57-52.51Z" /><path class="cls-8" d="M2165,522.65l0,3.32c-184.16,1.06-327.33,53.09-425.54,154.64C1598.75,826.15,1601,1025.21,1601,1027.2l-3.29.07c0-2-2.3-202.39,139.42-348.95C1836,576.09,1979.94,523.72,2165,522.65Z" /></g></g></g></g></svg>