<svg xmlns="http://www.w3.org/2000/svg" viewBox="0 0 377.56 377.56"><defs><style>.cls-1{fill:#333;}</style></defs><g id="Layer_2" data-name="Layer 2"><g id="desktop"><path class="cls-1" d="M188.78,13.42A175.36,175.36,0,1,1,13.42,188.78,175.36,175.36,0,0,1,188.78,13.42m0-13.42C84.69,0,0,84.69,0,188.78S84.69,377.56,188.78,377.56s188.78-84.69,188.78-188.78S292.87,0,188.78,0M219.5,37.64c-15.38-2.79-52.58,53.7-64.88,88.1-.94,2.61-3.08,12.17-3.08,14.68,0,0,9.63,20.73,12.3,25.59-4.47-2.33-13.75-20.28-13.75-20.28-4.47,8.53-8.76,47.69-7.36,55,0,0,10,14.84,13.84,18.55-5.31-1.77-14.26-13.79-14.26-13.79-1.68,5.17-1.35,15.94-.56,19.57,6.71,9.79,15.66,10.91,15.66,10.91s-9.79,97.61,5,104.88c9.23-2,11.46-109.07,11.46-109.07s11.19.84,13.71-2c5.68-3.92,18.91-44.58,19.11-50.44,0,0-15.36,2.88-22.84,5.78,5.64-5.6,23.67-9.36,23.67-9.36,4.89-5.87,15.17-45.79,16.21-58.1a62.91,62.91,0,0,0,.4-12.38s-14.67,3.21-17.72,2.1c3.1-.35,18.08-6.11,18.08-6.11,2.66-23.91,3.48-62.08-5-63.63ZM165.85,290.86c-1.18,28.75-1.91,36.88-3.12,43.66-.56,1.26-1.12,1.47-1.68-.14-5.13-23.59-4.76-201.23,53.69-282-34,62.08-49.45,181.2-48.89,238.53Z"/></g></g></svg>