<svg xmlns="http://www.w3.org/2000/svg" xmlns:xlink="http://www.w3.org/1999/xlink" viewBox="0 0 2071 1265"><defs><style>.cls-1{fill:none;}.cls-2{isolation:isolate;}.cls-3{fill:url(#linear-gradient);}.cls-4{clip-path:url(#clip-path);}.cls-5{fill:url(#linear-gradient-2);}.cls-6{fill:url(#linear-gradient-3);}.cls-7{opacity:0.6;fill:url(#linear-gradient-4);}.cls-8,.cls-9{mix-blend-mode:screen;}.cls-8{fill:url(#linear-gradient-5);}.cls-9{fill:url(#linear-gradient-6);}</style><linearGradient id="linear-gradient" x1="1818.02" y1="79.32" x2="-385.3" y2="2105.05" gradientUnits="userSpaceOnUse"><stop offset="0.02" stop-color="#0171fb"/><stop offset="0.25" stop-color="#0855d9"/><stop offset="0.59" stop-color="#122fad"/><stop offset="0.85" stop-color="#181891"/><stop offset="1" stop-color="#1a0f87"/></linearGradient><clipPath id="clip-path"><rect class="cls-1" width="2071" height="1266"/></clipPath><linearGradient id="linear-gradient-2" x1="926.08" y1="-764.49" x2="-459.97" y2="981.65" xlink:href="#linear-gradient"/><linearGradient id="linear-gradient-3" x1="2097.32" y1="282.4" x2="259.02" y2="1972.54" gradientUnits="userSpaceOnUse"><stop offset="0.02" stop-color="#0171fb"/><stop offset="0.1" stop-color="#0465ed"/><stop offset="0.39" stop-color="#0d40c1"/><stop offset="0.64" stop-color="#1425a1"/><stop offset="0.85" stop-color="#18158e"/><stop offset="1" stop-color="#1a0f87"/></linearGradient><linearGradient id="linear-gradient-4" x1="2393.64" y1="-512.85" x2="1101.31" y2="1672.27" gradientUnits="userSpaceOnUse"><stop offset="0.02" stop-color="#0171fb"/><stop offset="0.24" stop-color="#065fe6"/><stop offset="0.69" stop-color="#1132b0"/><stop offset="1" stop-color="#1a0f87"/></linearGradient><linearGradient id="linear-gradient-5" x1="1779.11" y1="157.06" x2="682.25" y2="1538.88" xlink:href="#linear-gradient"/><linearGradient id="linear-gradient-6" x1="499.39" y1="-45.22" x2="36.36" y2="538.1" xlink:href="#linear-gradient"/></defs><g class="cls-2"><g id="Layer_2" data-name="Layer 2"><g id="desktop"><rect class="cls-3"  width="2071" height="1266"/><g class="cls-4"><path class="cls-5" d="M0,0V387.49a421.31,421.31,0,0,0,114.91,15.87c226.64,0,411.43-179,420.75-403.36Z" /><path class="cls-6" d="M2071.78,1266.09V0H1360.09c-1.79,47.22,2.76,91.43,38.76,141.9,56.15,78.7,140,147.3,206.77,217.37,96.47,101.23,209.84,174,242.16,319.48,26.13,117.71-5.38,261-110.6,331.36-102.46,68.48-249.8,31.47-358.64-.64-305.69-90.17-641.22.29-842.48,256.62Z" /><path class="cls-7" d="M2071.78,1266.09V0H1360.09a307.59,307.59,0,0,0,1.36,47.09c10.15,28.73,26.63,56.65,55.38,84.81,76.07,74.51,180.23,132.71,266.16,195.8,124.14,91.16,261.12,148.14,324.24,299.71,51.05,122.6,44.53,284.09-56,380.65-97.89,94-264.79,82.33-389,68.52-239.36-26.61-477.54,41.7-658,189.51Z" /><path class="cls-8" d="M404.21,1318.18l-2.42-2.24C703,990,805.44,1004.42,1052.84,1039.27c80.35,11.31,180.35,25.39,307.18,29.51,75.85,2.46,140.55-5.58,197.72-24.58,133.15-44.26,215.77-157.35,215.62-295.14-.08-63.06-16.3-128.87-46.9-190.33-29.13-58.49-75.18-103.19-119.72-146.41-26.48-25.69-53.85-52.26-77.74-81.67-47.53-58.51-80.83-129.52-96.29-205.37-16.41-80.47-14.78-164.95,4.59-237.87l3.18.85c-19.24,72.43-20.86,156.38-4.55,236.37,15.36,75.32,48.43,145.85,95.62,204,23.77,29.26,51.07,55.76,77.48,81.38,44.73,43.41,91,88.31,120.37,147.3,30.83,61.92,47.17,128.24,47.25,191.79.15,139.26-83.33,253.55-217.87,298.27-57.55,19.13-122.59,27.21-198.87,24.74-127-4.12-227.1-18.21-307.53-29.54C806.2,1007.86,704.28,993.51,404.21,1318.18Z" /><path class="cls-9" d="M-57.39,463.68V460.4C126.76,459.34,269.93,407.74,368.14,307,508.9,162.64,506.69-34.8,506.65-36.78l3.29-.07c0,2,2.3,200.75-139.42,346.12C271.67,410.67,127.7,462.63-57.39,463.68Z"/></g></g></g></g></svg>