<svg xmlns="http://www.w3.org/2000/svg" viewBox="0 0 335.25 379.88"><defs><style>.cls-1{fill:#e54d26;}.cls-2{fill:#e8441b;}.cls-3{fill:#fdece8;}.cls-4{fill:#fff;}.cls-5{fill:#f66b3a;}.cls-6{fill:#e44016;}.cls-7{fill:#f5612d;}</style></defs><g id="Layer_2" data-name="Layer 2"><g id="desktop"><path class="cls-1" d="M335.05,2.28c.29,4.38-.54,8.7-.88,13-1.56,19.31-3.28,38.6-5,57.89q-2.4,27.31-4.83,54.62c-1.09,12.54-2.1,25.09-3.19,37.63-1.59,18.21-3.24,36.41-4.82,54.62-1.33,15.32-2.57,30.64-3.88,46-1.1,12.78-2.28,25.56-3.4,38.34q-1.48,17-2.92,34c-.33,4,0,3.1-3.34,4q-44.29,12.49-88.64,24.82-21.63,6.06-43.25,12.17a11.18,11.18,0,0,1-6.33,0Q98.85,361,33.06,342.55c-3.53-1-3.58-1-3.88-4.51C28.1,325.38,27.09,312.7,26,300S23.74,275,22.65,262.42c-.85-9.76-1.61-19.54-2.45-29.31-1.06-12.3-2.17-24.6-3.24-36.9q-1.31-14.84-2.56-29.67-1.61-18.63-3.23-37.26-1.29-15-2.59-30Q7,80.8,5.41,62.35,4.14,47.52,2.81,32.69c-.66-7.48-1.34-14.95-2-22.43C.7,8.58.73,6.88.68,5.19,1.27.86,1.27.84,5.71.84q162.21,0,324.43,0C331.86.87,333.87.23,335.05,2.28Z"/><path class="cls-2" d="M335.05,2.28c-1.43-.91-3-.71-4.59-.71q-40.66,0-81.34,0H7.27c-.85,0-1.7,0-2.54,0C2,1.6,2,1.61,1.28,4.31a3.35,3.35,0,0,1-.6.88L0,1.06C1.12-.07,2.53.52,3.79.52Q167.47.46,331.15.5c1.31,0,2.67-.29,3.94.3A1.67,1.67,0,0,1,335.05,2.28Z"/><path class="cls-3" d="M335.09.8c-1.7,0-3.39,0-5.09,0H4.71C3.14.85,1.57,1,0,1.06A1.45,1.45,0,0,1,1.42.14q1.63,0,3.27,0,162.95,0,325.88,0C332.08.14,333.74-.45,335.09.8Z"/><path class="cls-4" d="M167.84,198c-1.33,0-2.66-.12-4-.12H78.54a21.51,21.51,0,0,0-2.54,0c-1.72.19-2.35-.56-2.48-2.24-.46-6.27-1-12.53-1.55-18.79q-1.71-19.51-3.43-39Q67.33,123.9,66.16,110,64.59,91.36,63,72.75a9,9,0,0,0-.5-1.71c.93-1.53,2.43-.71,3.61-.72q48.85-.07,97.72,0a19.71,19.71,0,0,0,4-.13,12.55,12.55,0,0,1,5-.53q47.22,0,94.44,0c1.79,0,3.66-.32,5.32.72,1.31,1.55,1.17,3.4,1,5.2-1.09,10.71-2,21.44-2.85,32.16-.44,5.35-1.53,6.24-7.57,6.26-48.06.1-96.12-.13-144.17-.11-1.77,0-3.67-.53-5.21.85a4.57,4.57,0,0,0-.74,3.47c.9,10.71,1.69,21.44,2.29,32.17a6,6,0,0,0,1.11,3.4c1.4,1.43,3.2.92,4.84.92,45.67,0,91.35-.14,137-.07,8,0,8.08,0,7.44,8.09-1.52,19.07-3.25,38.11-4.91,57.16-1.61,18.45-3.31,36.89-4.65,55.36-.05.61-.1,1.21-.17,1.81-.81,6.43-.81,6.48-7.17,8.24q-38,10.53-76,21c-1.87.52-3.74,1.1-5.65.14l-82-22.74a13.32,13.32,0,0,0-2.09-.59c-1.55-.14-1.91-1.07-2-2.44-.56-6.51-1.21-13-1.79-19.51Q77.51,241,75.79,221c-.24-2.73-.29-2.77,2.58-2.78q19,0,38.12,0c2.49,0,2.49.07,2.67,2.6.68,9.41,1.38,18.81,2,28.23.1,1.41.22,2.38,2,2.86,14.68,4,29.32,8,44,12.09a2.19,2.19,0,0,0,.71-.05,6.68,6.68,0,0,1,3.45-1.88c11.93-3.2,23.79-6.64,35.71-9.85,5.92-1.59,5.88-1.56,6.39-7.69,1.13-13.74,2.21-27.47,2.88-41.24.21-4.3.2-4.33-4.33-4.34-12.95,0-25.9,0-38.86,0C171.3,198.92,169.43,199.19,167.84,198Z"/><path class="cls-5" d="M167.15,306.38c6.2-1.09,12.17-3.1,18.22-4.75,21.68-5.92,43.31-12,65-18a12.91,12.91,0,0,1,2.08-.59c1.54-.16,1.91-1.06,2-2.45.37-4.58.88-9.16,1.27-13.74,1.33-15.55,2.59-31.11,4-46.66,1.55-17.72,3.18-35.44,4.77-53.15.28-3.14.51-6.27.78-9.41.11-1.28-.19-2.13-1.74-2-1,.08-1.94,0-2.9,0q-70.86,0-141.72,0c-1.33,0-2.87.67-4-.68,1.62-1.43,3.63-1.14,5.54-1.15,13.69,0,27.38,0,41.07,0,5.12,0,5.24-.14,5.25-5.33q0-14.53,0-29.07c0-4.4-.31-4.69-4.8-4.7-14.78,0-29.55,0-44.33,0-1.9,0-3.92.36-5.54-1.12,1.26-1.07,2.76-.54,4.14-.54q73.61,0,147.22,0c5.88,0,5.75,0,6.23-6.12.8-10.14,1.78-20.26,2.66-30.39.16-1.93.18-3.87.26-5.8-1.2-.89-2.58-.44-3.86-.44-33.4,0-66.8,0-100.2-.06l-.64-.3q0-17.27,0-34.53c0-.84,0-1.69,0-2.54-.06-1.49.54-2.29,2.12-2.22.84,0,1.69,0,2.54,0H297.91c.6,0,1.21,0,1.81,0,2.53.09,2.5.1,2.11,2.72-.46,3.1-.57,6.26-.75,9.35-.39,7-1.18,13.93-1.78,20.88-.55,6.46-1.06,12.94-1.82,19.39-.47,4-.6,8.19-1.07,12.24s-.24,8.41-1.14,12.57a59.2,59.2,0,0,0-.7,8.63c-.27,4.08-.78,8.16-1.07,12.24a100.81,100.81,0,0,1-1.12,11.85,65.92,65.92,0,0,0-.75,9c-.2,4-.62,8-1.08,11.88-.48,4.06-.22,8.17-1.1,12.22a50.5,50.5,0,0,0-.76,8.62c-.28,6.75-1,13.46-1.72,20.15-.71,6.94-1.09,13.91-1.87,20.84-.42,3.8-.64,7.7-1,11.51-.45,4.19-.28,8.42-1.14,12.58a57.56,57.56,0,0,0-.74,9c-.28,6.76-1.19,13.45-1.77,20.16s-1.05,13.42-1.84,20.11c-.46,3.91-.83,7.91-.95,11.89-.11,3.61-1,7.16-.76,10.81.11,1.85-1.46,2.43-2.85,2.8-7.45,2-14.92,3.93-22.37,5.95-14.54,3.95-29.06,8-43.6,11.91-11.4,3.09-22.82,6.12-34.23,9.17-.58.15-1.18.26-1.75.46-4.66,1.63-4.2,1-4.2-3.32V310.59C167.86,309.15,168.09,307.66,167.15,306.38Z"/><path class="cls-5" d="M167.84,198l37.4-.12c3.39,0,6.78,0,10.16,0,2.48,0,2.52.11,2.36,2.39q-1.69,24.26-3.4,48.51c-.09,1.32,0,2.54-1.8,3-14.91,4-29.7,8.49-44.71,12.14Z"/><path class="cls-6" d="M167.85,70.55c-1.44,0-2.89.14-4.33.14q-48.37,0-96.73,0a11.2,11.2,0,0,0-4.31.33A1.45,1.45,0,0,1,63.79,70c.84,0,1.69-.06,2.53-.06H167.87c.24.14.31.29.23.43S167.94,70.55,167.85,70.55Z"/><path class="cls-1" d="M112,113.54l50.48,0c.84,0,1.69,0,2.54,0,2.72.09,2.79.1,2.8,2.94q0,17.62,0,35.23c0,3.17,0,3.22-3.27,3.22q-24.87,0-49.74,0c-1-5.23-.85-10.56-1.33-15.84-.67-7.32-1.06-14.67-1.55-22A8.69,8.69,0,0,1,112,113.54Z"/><path class="cls-7" d="M167.85,70.55c0-.22,0-.43,0-.64q50.3,0,100.6,0c1.37,0,2.94-.61,4.07.79l-100.35,0C170.74,70.69,169.3,70.6,167.85,70.55Z"/></g></g></svg>