<svg xmlns="http://www.w3.org/2000/svg" viewBox="0 0 334.91 378.67"><defs><style>.cls-1{fill:#e9ca32;}.cls-2{fill:#eec92f;}.cls-3{fill:#ffde24;}.cls-4{fill:#fff;}.cls-5{fill:#e8c829;}.cls-6{fill:#e8c51f;}.cls-7{fill:#ffdb12;}</style></defs><g id="Layer_2" data-name="Layer 2"><g id="desktop"><path class="cls-1" d="M334.66,2.2c.24,4.86-.69,9.65-1,14.48-.46,7.12-1.23,14.22-1.86,21.33q-1.35,15.18-2.69,30.38c-.56,6.39-1.08,12.78-1.64,19.17-.93,10.73-1.9,21.45-2.81,32.18-.82,9.53-1.57,19.06-2.39,28.59-.86,10-1.8,20-2.67,30-.8,9-1.54,18.1-2.33,27.14-.92,10.61-1.87,21.21-2.78,31.82-.79,9.16-1.54,18.33-2.33,27.5-.91,10.49-1.88,21-2.78,31.45-.81,9.53-1.55,19.06-2.36,28.59-.38,4.46-1,8.91-1.2,13.37-.09,2.19-1.05,2.9-2.89,3.4q-14.87,4-29.71,8.21c-33,9.26-66.12,18.46-99.13,27.86a23.1,23.1,0,0,1-13.33,0q-63-17.85-126-35.32c-5.66-1.58-5.6-1.55-6.09-7.41-1.12-13.51-2.35-27-3.5-40.51-.86-10.13-1.61-20.27-2.49-30.39-1.07-12.3-2.27-24.59-3.33-36.88-1.11-12.78-2.08-25.58-3.19-38.36-1.32-15.31-2.75-30.61-4.09-45.91-.84-9.65-1.58-19.31-2.42-29S7.82,94.45,7,84.69C6.14,75.16,5.39,65.63,4.56,56.1c-.86-10-1.9-20-2.61-30C1.4,18.37.29,10.68.2,2.93.48,1,1.49.3,3.59.33,13.28.47,23,.39,32.65.39q148.77,0,297.53,0C331.85.41,334-.36,334.66,2.2Z"/><path class="cls-2" d="M334.66,2.2c-.87-.84-1.72-1.69-3.12-1.48a14.28,14.28,0,0,1-2.17,0H5.64a7,7,0,0,1-1.45,0c-2-.44-3.13.61-4,2.2C-.21.06-.21.06,2.34,0H331c.85,0,1.7,0,2.55,0C335.39,0,334.93,1.11,334.66,2.2Z"/><path class="cls-3" d="M167.44,189.79V34.61c0-5.15-.39-4.8,4.63-4.8H298.54c3.5.05,3.38,0,2.9,3.42a93.27,93.27,0,0,0-.81,9.7c-.16,4.35-.67,8.67-1.07,13-.34,3.68-.15,7.45-1.08,11.12a41.75,41.75,0,0,0-.7,7.9c-.24,4.09-.71,8.18-1.09,12.24s-.28,8.4-1.12,12.57a64.22,64.22,0,0,0-.73,9c-.22,4-.61,8-1.1,11.87-.5,4.07-.24,8.17-1.08,12.23-.65,3.13-.39,6.46-.82,9.71-.64,4.76-1,9.57-1.36,14.35-.28,4-.55,7.95-1,11.88-.52,4.42-.39,8.89-1.2,13.3a53.15,53.15,0,0,0-.74,8.25c-.08,4.12-.62,8.19-1,12.25-.62,6.46-.85,13-1.9,19.38-.52,3.2-.42,6.48-.69,9.72-.35,4.19-.73,8.42-1.1,12.6-.33,3.68-.2,7.45-1.09,11.12-.66,2.79-.5,5.77-.7,8.63-.26,4-.61,8-1.1,11.87s-.18,8.17-1.09,12.22c-.72,3.14-.48,6.47-.73,9.71-.31,3.95-.93,7.89-1,11.88-.09,3-.72,6-.61,9a1.85,1.85,0,0,1-1.57,2.08c-1.51.4-3,.94-4.5,1.35l-44,11.92-31.07,8.38q-12.57,3.38-25.16,6.7c-2.61.68-2.66.58-2.77-1.95,0-.85,0-1.7,0-2.55Z"/><path class="cls-4" d="M117.26,256.5c1-1.3.49-2.8.49-4.19q0-88.86,0-177.73c0-1.57.14-3.14.22-4.71,1.09-.77,2.34-.39,3.51-.4q14.67,0,29.33,0c1.16,0,2.42-.43,3.48.45,0,1.57.11,3.14.11,4.72q0,113,0,225.94c0,1.54.31,3.12-.37,4.7-2.61-.09-5-1.05-7.41-1.71Q101.53,291.36,56.46,279c-3.28-.9-3.18,0-3.19-4.06q0-16,0-32a5.61,5.61,0,0,1,.35-2.92c1.84-.36,3.51.53,5.21,1q28.34,7.68,56.63,15.45a5.49,5.49,0,0,0,1.08.11A.42.42,0,0,1,117.26,256.5Z"/><path class="cls-5" d="M117.26,256.5l-.71.1v-186h.71Z"/><path class="cls-6" d="M154.33,69.93,118,69.87c.77-1.1,1.94-.78,3-.78q15.2,0,30.39,0C152.42,69.09,153.6,68.76,154.33,69.93Z"/><path class="cls-4" d="M285.19,70c-.07,7.4-1.24,14.7-1.73,22.07-.27,4-.77,7.94-1.14,11.92-.27,2.84-.24,2.88-3.21,2.88h-37.8c-7.15,0-14.3,0-21.44,0-2.77,0-2.83,0-2.83,2.81q0,29.25,0,58.51c0,3,.18,3.11,3.53,2.62,8.37-1.22,16.74-2.5,25.1-3.78q15.06-2.29,30.1-4.66c1.62-.26,2.2.2,2,1.87-.79,8.07-1.53,16.14-2.29,24.22q-1,10.47-2,21-1.29,13.74-2.58,27.47-1.24,13.55-2.48,27.11c-.48,5.3-1.06,10.59-1.4,15.9-.12,1.8-1.1,2.13-2.47,2.5-7.92,2.17-15.83,4.4-23.75,6.59q-28.65,7.92-57.31,15.81c-.92.25-1.79.8-2.81.36-.58-1-.34-2.12-.34-3.19q0-15.81,0-31.62c0-3.86-.29-3.14,3.13-4.1,15.94-4.47,31.89-8.91,47.89-13.15,2.79-.74,3.91-1.94,4.17-4.78.91-9.88,2-19.74,3.11-29.61.41-3.84.87-7.68,1.28-11.53.29-2.82.15-2.91-2.57-2.48l-55.88,8.77a2.71,2.71,0,0,1-.72-.1c-.71-1.1-.41-2.35-.41-3.53q0-68.15,0-136.28c0-1.21.09-2.42.14-3.63,1-.8,2.09-.44,3.14-.44q49.2,0,98.4,0C283.12,69.48,284.28,69.05,285.19,70Z"/><path class="cls-7" d="M285.19,70q-18.72,0-37.43-.06H180.54c.74-1.15,1.93-.82,3-.82q49.37,0,98.75,0C283.3,69.09,284.49,68.75,285.19,70Z"/></g></g></svg>