<svg xmlns="http://www.w3.org/2000/svg" viewBox="0 0 430.55 222.35"><defs><style>.cls-1,.cls-3{fill:#00618a;}.cls-2,.cls-4{fill:#e48e00;}.cls-3,.cls-4{fill-rule:evenodd;}</style></defs><g id="Layer_2" data-name="Layer 2"><g id="desktop"><path class="cls-1" d="M0,202.52H14.18v-56l22,48.83c2.59,5.91,6.14,8,13.1,8s10.36-2.09,12.95-8l22-48.83v56H98.34V146.6c0-5.45-2.19-8.09-6.69-9.46-10.77-3.36-18-.45-21.27,6.82l-21.55,48.2L28,144c-3.14-7.27-10.5-10.18-21.28-6.82-4.5,1.37-6.68,4-6.68,9.46Z"/><path class="cls-1" d="M110.13,156.93h14.18v30.86c-.13,1.68.54,5.61,8.31,5.73,4,.06,30.59,0,30.84,0V156.78h14.22c.06,0,0,50.11,0,50.32.08,12.36-15.33,15-22.43,15.25H110.44v-9.54c.08,0,44.75,0,44.87,0,9.13-1,8.05-5.5,8.05-7v-3.72H133.21c-14-.13-23-6.26-23.07-13.3C110.13,188.11,110.44,157.24,110.13,156.93Z"/><path class="cls-2" d="M188.61,202.52h40.78a31.42,31.42,0,0,0,13.09-2.73c6.14-2.81,9.14-6.63,9.14-11.64V177.79c0-4.09-3.41-7.91-10.09-10.46a35,35,0,0,0-12.14-2.09H212.2c-5.72,0-8.45-1.73-9.13-5.55a3.91,3.91,0,0,1-.14-1.27V152a3.73,3.73,0,0,1,.14-1.19c.68-2.91,2.18-3.73,7.22-4.18.41,0,1-.09,1.37-.09h40.51v-9.46H212.34c-5.73,0-8.73.37-11.46,1.18-8.45,2.64-12.14,6.83-12.14,14.1v8.27c0,6.37,7.23,11.82,19.37,13.1,1.37.09,2.73.18,4.09.18h14.73a7.65,7.65,0,0,1,1.5.09c4.5.36,6.41,1.18,7.78,2.82a3.38,3.38,0,0,1,1.09,2.54v8.28a4.72,4.72,0,0,1-2.05,3.36,10,10,0,0,1-6,2c-.54,0-.95.1-1.5.1H188.61Z"/><path class="cls-2" d="M340.11,186.06c0,9.73,7.22,15.19,21.82,16.28,1.36.09,2.73.18,4.09.18h37v-9.45H365.75c-8.32,0-11.46-2.1-11.46-7.1V137.05H340.11Z"/><path class="cls-2" d="M260.67,186.56V152.85c0-8.57,6-13.76,17.91-15.4a27.27,27.27,0,0,1,3.82-.28h26.93a29.29,29.29,0,0,1,4,.28c11.89,1.64,17.91,6.83,17.91,15.4v33.71c0,6.95-2.56,10.67-8.44,13.09l14,12.61H320.26L309,202.06l-11.38.72H282.4a31.39,31.39,0,0,1-8.33-1.19C265.05,199.13,260.67,194.4,260.67,186.56Zm15.31-.82a6.11,6.11,0,0,0,.28,1.46c.82,3.92,4.51,6.1,10.11,6.1h12.89l-11.84-10.68h16.47l10.32,9.32a6.72,6.72,0,0,0,3.59-4.56,4.53,4.53,0,0,0,.14-1.37V153.67a4.28,4.28,0,0,0-.14-1.28c-.82-3.64-4.51-5.74-10-5.74H286.37c-6.29,0-10.39,2.74-10.39,7Z"/><path class="cls-1" d="M415.46,121.37c-8.72-.24-15.38.57-21.07,3-1.62.69-4.2.7-4.46,2.73.88.93,1,2.32,1.73,3.47a27.42,27.42,0,0,0,5.7,6.7c2.24,1.68,4.55,3.49,6.95,4.95,4.26,2.61,9,4.09,13.14,6.7,2.42,1.54,4.82,3.47,7.18,5.2,1.17.86,2,2.19,3.48,2.73v-.25c-.8-1-1-2.41-1.74-3.47l-3.22-3.22A53,53,0,0,0,411.74,139c-3.39-2.43-11-5.72-12.39-9.67a3,3,0,0,1-.25-.25,55.24,55.24,0,0,0,7.44-1.73c3.72-1,7.06-.74,10.91-1.74l5.2-1.48v-1c-1.94-2-3.33-4.64-5.45-6.44a158.87,158.87,0,0,0-17.85-13.39c-3.46-2.19-7.74-3.61-11.41-5.46-1.23-.62-3.4-.94-4.21-2-1.93-2.46-3-5.57-4.47-8.43-3.11-6-6.16-12.54-8.92-18.84-1.88-4.3-3.11-8.54-5.46-12.4-11.25-18.51-23.37-29.68-42.14-40.66-4-2.34-8.81-3.26-13.89-4.46l-8.18-.5c-1.66-.69-3.4-2.73-5-3.72-6.22-3.93-22.17-12.47-26.77-1.24-2.91,7.09,4.34,14,6.94,17.61,1.82,2.52,4.15,5.34,5.45,8.18.86,1.86,1,3.73,1.74,5.7,1.8,4.86,3.37,10.14,5.7,14.63a51.92,51.92,0,0,0,4,6.69c.91,1.25,2.48,1.8,2.72,3.72-1.53,2.14-1.61,5.47-2.47,8.18-3.88,12.22-2.42,27.41,3.22,36.45,1.73,2.78,5.8,8.73,11.4,6.45,4.9-2,3.81-8.18,5.21-13.64.32-1.24.12-2.15.74-3v.25l4.47,8.93c3.3,5.32,9.16,10.88,14.13,14.63,2.57,1.94,4.6,5.3,7.93,6.44v-.25h-.25c-.64-1-1.65-1.42-2.47-2.23a56.18,56.18,0,0,1-5.71-6.44,151.27,151.27,0,0,1-12.15-19.84c-1.73-3.33-3.24-7-4.71-10.41-.56-1.31-.56-3.29-1.73-4-1.61,2.49-4,4.5-5.21,7.44-2,4.7-2.24,10.42-3,16.36-.44.16-.24,0-.5.25-3.45-.83-4.67-4.39-5.95-7.44-3.25-7.71-3.85-20.13-1-29,.74-2.3,4.08-9.54,2.73-11.66-.65-2.11-2.78-3.34-4-5a38.62,38.62,0,0,1-4-6.94c-2.65-6-3.9-12.76-6.69-18.84a54.72,54.72,0,0,0-5.46-8.43c-2-2.86-4.35-5-5.95-8.43-.56-1.23-1.33-3.2-.49-4.46a1.94,1.94,0,0,1,1.49-1.49c1.43-1.11,5.44.37,6.94,1a60.65,60.65,0,0,1,10.66,5.45c1.62,1.08,3.25,3.15,5.2,3.72h2.24c3.49.81,7.4.25,10.66,1.24a65.09,65.09,0,0,1,15.62,7.44,96.66,96.66,0,0,1,34,37.19c1.29,2.47,1.84,4.82,3,7.44,2.28,5.28,5.16,10.71,7.43,15.87s4.48,10.34,7.69,14.63c1.69,2.25,8.2,3.46,11.16,4.71,2.07.87,5.47,1.79,7.44,3,3.75,2.26,7.38,5,10.9,7.44C409.78,116.41,415.19,119.13,415.46,121.37Z"/><path class="cls-3" d="M304.64,26.91a17.27,17.27,0,0,0-4.46.49v.25h.24c.87,1.78,2.4,2.93,3.47,4.46.83,1.74,1.66,3.47,2.48,5.21l.25-.25c1.54-1.08,2.24-2.81,2.23-5.45-.61-.65-.7-1.46-1.24-2.24C306.9,28.36,305.53,27.77,304.64,26.91Z"/><path class="cls-4" d="M409.64,192.8a10.46,10.46,0,1,0,10.45-10.46A10.31,10.31,0,0,0,409.64,192.8Zm18.57,0a8.12,8.12,0,1,1-8.12-8.28A8.1,8.1,0,0,1,428.21,192.8Zm-5.3,6h2.34l-3.43-5.24c1.84-.19,3.24-1.09,3.24-3.26,0-2.43-1.54-3.43-4.49-3.43h-4.66v11.93h2V193.6h1.87Zm-5-6.83V188.5h2.31c1.2,0,2.65.23,2.65,1.62,0,1.67-1.31,1.81-2.81,1.81Z"/></g></g></svg>