<svg xmlns="http://www.w3.org/2000/svg" xmlns:xlink="http://www.w3.org/1999/xlink" viewBox="0 0 457.79 280.38"><defs><style>.cls-1{fill:none;}.cls-2,.cls-4{fill:#689f63;}.cls-3{fill:#333;}.cls-3,.cls-4{fill-rule:evenodd;}.cls-5{clip-path:url(#clip-path);}.cls-6{fill:url(#linear-gradient);}.cls-7{clip-path:url(#clip-path-2);}.cls-8{fill:url(#linear-gradient-2);}.cls-9{clip-path:url(#clip-path-3);}.cls-10{fill:url(#linear-gradient-3);}</style><clipPath id="clip-path"><path class="cls-1" d="M166.33,64.77l-43.6,25.17a5.27,5.27,0,0,0-2.64,4.56v50.36a5.27,5.27,0,0,0,2.64,4.56l43.6,25.18a5.28,5.28,0,0,0,5.27,0l43.59-25.18a5.26,5.26,0,0,0,2.63-4.56V94.5a5.25,5.25,0,0,0-2.64-4.56L171.59,64.77a5.31,5.31,0,0,0-5.27,0"/></clipPath><linearGradient id="linear-gradient" x1="2178.58" y1="2178.56" x2="2179.82" y2="2178.56" gradientTransform="matrix(-50.75, 103.54, 103.54, 50.75, -114789.2, -336074.05)" gradientUnits="userSpaceOnUse"><stop offset="0.3" stop-color="#3e863d"/><stop offset="0.5" stop-color="#55934f"/><stop offset="0.8" stop-color="#5aad45"/></linearGradient><clipPath id="clip-path-2"><path class="cls-1" d="M121.17,148.06a5.25,5.25,0,0,0,1.56,1.36l37.4,21.6,6.23,3.58a5.21,5.21,0,0,0,4.07.5l46-84.19a5.06,5.06,0,0,0-1.22-1L186.64,73.45l-15.09-8.69a5.75,5.75,0,0,0-1.37-.54Z"/></clipPath><linearGradient id="linear-gradient-2" x1="2175.85" y1="2215.49" x2="2176.66" y2="2215.49" gradientTransform="matrix(142.41, -105.22, -105.22, -142.41, -76627.64, 544611.46)" gradientUnits="userSpaceOnUse"><stop offset="0.57" stop-color="#3e863d"/><stop offset="0.72" stop-color="#619857"/><stop offset="1" stop-color="#76ac64"/></linearGradient><clipPath id="clip-path-3"><path class="cls-1" d="M168.44,64.1a5.33,5.33,0,0,0-2.11.67L122.85,89.86l46.88,85.39a5.08,5.08,0,0,0,1.88-.65l43.6-25.18a5.29,5.29,0,0,0,2.54-3.6L170,64.18a5.36,5.36,0,0,0-1.06-.1,3.24,3.24,0,0,0-.44,0"/></clipPath><linearGradient id="linear-gradient-3" x1="2164.45" y1="2212.55" x2="2165.18" y2="2212.55" gradientTransform="matrix(129.89, 0, 0, -129.89, -281015.62, 287506.24)" gradientUnits="userSpaceOnUse"><stop offset="0.16" stop-color="#6bbf47"/><stop offset="0.38" stop-color="#79b461"/><stop offset="0.47" stop-color="#75ac64"/><stop offset="0.7" stop-color="#659e5a"/><stop offset="0.9" stop-color="#3e863d"/></linearGradient></defs><g id="Layer_2" data-name="Layer 2"><g id="desktop"><path class="cls-2" d="M226.27,280.38a8.76,8.76,0,0,1-4.34-1.16l-13.8-8.17c-2.06-1.16-1-1.56-.37-1.8A27.71,27.71,0,0,0,214,266.4a1,1,0,0,1,1,.08l10.61,6.29a1.38,1.38,0,0,0,1.28,0l41.34-23.86a1.3,1.3,0,0,0,.63-1.12V200.08a1.31,1.31,0,0,0-.64-1.14L226.92,175.1a1.27,1.27,0,0,0-1.28,0l-41.31,23.84a1.32,1.32,0,0,0-.66,1.13v47.71a1.27,1.27,0,0,0,.64,1.1l11.32,6.55c6.15,3.07,9.91-.55,9.91-4.2V204.15a1.18,1.18,0,0,1,1.2-1.19H212a1.18,1.18,0,0,1,1.19,1.19v47.1c0,8.2-4.48,12.91-12.25,12.91-2.39,0-4.27,0-9.53-2.59l-10.84-6.25a8.74,8.74,0,0,1-4.34-7.54V200.07a8.69,8.69,0,0,1,4.34-7.53l41.38-23.88a9.06,9.06,0,0,1,8.69,0L272,192.55a8.71,8.71,0,0,1,4.33,7.53v47.71a8.74,8.74,0,0,1-4.33,7.53L230.62,279.2a8.72,8.72,0,0,1-4.35,1.16"/><path class="cls-2" d="M239,247.5c-18.09,0-21.88-8.3-21.88-15.27a1.19,1.19,0,0,1,1.2-1.19h5.34a1.2,1.2,0,0,1,1.18,1c.8,5.44,3.2,8.18,14.14,8.18,8.72,0,12.42-2,12.42-6.59,0-2.66-1.05-4.63-14.59-6-11.32-1.12-18.32-3.61-18.32-12.66,0-8.35,7-13.31,18.83-13.31,13.23,0,19.79,4.59,20.62,14.46a1.21,1.21,0,0,1-.32.93,1.27,1.27,0,0,1-.88.38h-5.37a1.18,1.18,0,0,1-1.16-.93c-1.29-5.73-4.42-7.56-12.91-7.56-9.51,0-10.62,3.31-10.62,5.8,0,3,1.3,3.89,14.13,5.59s18.75,4.06,18.75,13-7.52,14.17-20.62,14.17M289.34,197h1.38a1.21,1.21,0,0,0,1.36-1.27c0-1.22-.84-1.22-1.3-1.22h-1.43Zm-1.69-3.91h3.07c1.06,0,3.13,0,3.13,2.35a2.06,2.06,0,0,1-1.69,2.2c1.23.08,1.32.89,1.48,2a9,9,0,0,0,.47,2.36h-1.9c0-.42-.34-2.69-.34-2.82-.12-.51-.3-.75-.93-.75h-1.56V202h-1.73ZM284,197.5a6.68,6.68,0,1,0,6.65-6.67A6.69,6.69,0,0,0,284,197.5m14.65,0a8,8,0,1,1-8-8,8,8,0,0,1,8,8"/><path class="cls-3" d="M98.25,93.71a5.29,5.29,0,0,0-2.65-4.6L51.77,63.89a5.17,5.17,0,0,0-2.41-.7H48.9a5.25,5.25,0,0,0-2.42.7L2.65,89.11A5.33,5.33,0,0,0,0,93.71l.1,67.93a2.61,2.61,0,0,0,1.31,2.29,2.54,2.54,0,0,0,2.63,0L30.1,149a5.36,5.36,0,0,0,2.65-4.6V112.68a5.27,5.27,0,0,1,2.64-4.59l11.09-6.39a5.35,5.35,0,0,1,2.65-.71,5.15,5.15,0,0,1,2.64.71l11.08,6.39a5.26,5.26,0,0,1,2.65,4.58v31.74A5.35,5.35,0,0,0,68.16,149l26,14.91a2.57,2.57,0,0,0,2.65,0,2.65,2.65,0,0,0,1.31-2.28Zm206.83,35.36a1.31,1.31,0,0,1-.66,1.15l-15.05,8.68a1.37,1.37,0,0,1-1.33,0L273,130.22a1.31,1.31,0,0,1-.67-1.15V111.69a1.33,1.33,0,0,1,.66-1.15l15-8.69a1.34,1.34,0,0,1,1.34,0l15.06,8.69a1.33,1.33,0,0,1,.66,1.15ZM309.15.34a2.64,2.64,0,0,0-3.94,2.31V69.92a1.85,1.85,0,0,1-.92,1.6,1.87,1.87,0,0,1-1.86,0l-11-6.32a5.27,5.27,0,0,0-5.29,0L242.32,90.5a5.28,5.28,0,0,0-2.65,4.58V145.7a5.31,5.31,0,0,0,2.65,4.59l43.84,25.32a5.33,5.33,0,0,0,5.3,0l43.85-25.33a5.33,5.33,0,0,0,2.65-4.59V19.52a5.32,5.32,0,0,0-2.73-4.63Zm146,110.9a5.31,5.31,0,0,0,2.63-4.58V94.39a5.29,5.29,0,0,0-2.63-4.58L411.59,64.52a5.3,5.3,0,0,0-5.31,0l-43.83,25.3a5.27,5.27,0,0,0-2.65,4.59V145a5.33,5.33,0,0,0,2.67,4.61L406,174.44a5.29,5.29,0,0,0,5.2,0l26.35-14.64a2.65,2.65,0,0,0,0-4.61l-44.11-25.31a2.61,2.61,0,0,1-1.33-2.29V111.75a2.61,2.61,0,0,1,1.32-2.29l13.72-7.92a2.6,2.6,0,0,1,2.64,0l13.73,7.92a2.62,2.62,0,0,1,1.33,2.28v12.48a2.64,2.64,0,0,0,4,2.29Z"/><path class="cls-4" d="M408.29,108.87a1,1,0,0,1,1,0l8.41,4.85a1,1,0,0,1,.51.88v9.72a1,1,0,0,1-.51.88l-8.41,4.85a1,1,0,0,1-1,0l-8.4-4.85a1,1,0,0,1-.52-.88V114.6a1,1,0,0,1,.51-.88Z"/><g class="cls-5"><path class="cls-6" d="M261.88,85.66,139,25.44,76,154l122.86,60.22Z"/></g><g class="cls-7"><path class="cls-8" d="M68.06,103.47,154.8,220.88l114.73-84.76L182.78,18.72Z"/></g><g class="cls-9"><path class="cls-10" d="M122.85,64.08V175.25h94.88V64.08Z"/></g></g></g></svg>