<svg id="Layer_1" data-name="Layer 1" xmlns="http://www.w3.org/2000/svg" viewBox="0 0 988.75 235"><defs><style>.cls-1{fill:#8ca0b5;}.cls-2{fill:#fff;}</style></defs><title>grey</title><path class="cls-1" d="M129.11,5.08H7.6V227.67H129.11V145.53L99.36,117.14,129.11,89ZM89,189.55H50.4v-55H89Zm0-91.32H50.4v-55H89Z"/><path class="cls-2" d="M245.63,29.51V59.29h29.75V29.51Zm0,144v29.77h29.75V173.47Z"/><polygon class="cls-2" points="216.84 59.29 216.84 173.47 245.63 173.47 245.63 203.24 183.45 203.24 183.45 145.35 213.03 117.14 183.45 89.07 183.45 29.51 245.63 29.51 245.63 59.29 216.84 59.29"/><rect class="cls-2" x="245.63" y="29.52" width="29.76" height="71.84"/><rect class="cls-2" x="245.63" y="131.54" width="29.76" height="71.7"/><polygon class="cls-2" points="206.86 117.14 183.45 139.5 177.63 145.05 177.63 135.58 184.71 128.49 196.57 117.18 184.71 105.9 177.63 98.81 177.63 89.41 183.45 94.93 206.86 117.14"/><polygon class="cls-2" points="127.71 105.9 115.82 117.18 127.71 128.49 134.8 135.58 134.8 145.05 129.11 139.63 105.53 117.14 129.11 94.79 134.8 89.41 134.8 98.81 127.71 105.9"/><polygon class="cls-2" points="168.68 65.25 150.23 161.85 143.73 161.85 162.18 65.25 168.68 65.25"/><path class="cls-2" d="M761.33,133.23V94.37c0-11.16,5.36-17.78,15.51-17.78s15.51,6.62,15.51,17.78V102h-10V93.64c0-4.75-2.1-6.71-5.26-6.71s-5.27,2-5.27,6.71v40.42c0,4.75,2.11,6.62,5.27,6.62s5.26-1.87,5.26-6.62V123h10v10.23c0,11.17-5.36,17.78-15.51,17.78S761.33,144.4,761.33,133.23Z"/><path class="cls-2" d="M798.67,77.62H809.2v29.46h11.29V77.62H831V150H820.49V117.42H809.2V150H798.67Z"/><path class="cls-2" d="M847,77.62h14.26L872.19,150H861.66l-1.92-14.37v.21h-12L845.86,150H836.1ZM858.5,126l-4.69-35.77h-.19L849,126Z"/><path class="cls-2" d="M873.43,77.62h10.15l4.69,55.61h.19l5-55.61h11.48l5,55.61h.19l4.69-55.61h9.1L917.08,150H904l-4.79-48.79H899L894.2,150h-14Z"/><path class="cls-2" d="M929.24,77.62h10.53v30.5l13.4-30.5H963.7l-12.54,26.57L963.89,150h-11L944,117.73l-4.21,9.2v23H929.24Z"/><path class="cls-2" d="M968.87,77.62H979.4V150H968.87Z"/><path class="cls-1" d="M300.54,77.62h15.89c10.92,0,15.61,5.48,15.61,16.64v2.9c0,7.44-2.11,12.09-6.8,14.16v.21c5.65,2.06,7.85,7.44,7.85,15.09v6.2c0,11.16-5.46,17.16-16,17.16H300.54Zm14.65,29.46c3.92,0,6.32-1.86,6.32-7.65v-4c0-5.17-1.63-7.44-5.36-7.44h-5.08v19.12Zm1.92,32.56c3.54,0,5.45-1.76,5.45-7.13v-6.3c0-6.72-2-8.79-6.79-8.79h-4.7v22.22Z"/><path class="cls-1" d="M339.22,77.62h28.72V88H349.75v19.12H364.2v10.34H349.75v22.22h18.19V150H339.22Z"/><path class="cls-1" d="M374,77.62h13.22l10.24,43.31h.19V77.62H407V150H396.17L383.54,97.16h-.19V150H374Z"/><path class="cls-1" d="M429.48,133.23V94.37c0-11.16,5.36-17.78,15.51-17.78s15.51,6.62,15.51,17.78V102h-10V93.64c0-4.75-2.1-6.71-5.26-6.71s-5.27,2-5.27,6.71v40.42c0,4.75,2.11,6.62,5.27,6.62s5.26-1.87,5.26-6.62V123h10v10.23C460.5,144.4,455.14,151,445,151S429.48,144.4,429.48,133.23Z"/><path class="cls-1" d="M466.82,77.62h10.53v29.46h11.29V77.62h10.53V150H488.64V117.42H477.35V150H466.82Z"/><path class="cls-1" d="M515.16,77.62h14.26L540.34,150H529.81l-1.92-14.37v.21h-12L514,150h-9.76ZM526.65,126,522,90.23h-.19L517.17,126Z"/><path class="cls-1" d="M545.41,77.62h10.53v62h17.32V150H545.41Z"/><path class="cls-1" d="M578.34,77.62h10.53v62h17.32V150H578.34Z"/><path class="cls-1" d="M619.79,77.62h14.26L645,150H634.43l-1.91-14.37v.21h-12L618.64,150h-9.77ZM631.27,126l-4.69-35.77h-.19L621.8,126Z"/><path class="cls-1" d="M650,77.62h16.09c10.53,0,15.7,6.31,15.7,17.89V132.1c0,11.57-5.17,17.88-15.7,17.88H650Zm15.9,62c3.35,0,5.36-1.86,5.36-7V95c0-5.17-2-7-5.36-7h-5.36v51.68Z"/><path class="cls-1" d="M688.9,77.62h10.53V150H688.9Z"/><path class="cls-1" d="M715.41,77.62h14.27L740.59,150H730.06l-1.91-14.37v.21h-12L714.27,150H704.5ZM726.9,126l-4.69-35.77H722L717.42,126Z"/></svg>