<svg xmlns="http://www.w3.org/2000/svg" xmlns:xlink="http://www.w3.org/1999/xlink" viewBox="0 0 418.58 220.19"><defs><style>.cls-1{fill:none;}.cls-2{clip-path:url(#clip-path);}.cls-3{fill:url(#radial-gradient);}.cls-4{clip-path:url(#clip-path-2);}.cls-5{fill:#777bb3;}.cls-6{fill:#fff;}</style><clipPath id="clip-path" transform="translate(-8.72 -12.54)"><path class="cls-1" d="M8.72,122.63c0,60.8,93.7,110.1,209.29,110.1h0c115.59,0,209.29-49.3,209.29-110.1h0c0-60.8-93.7-110.09-209.29-110.09h0C102.42,12.54,8.72,61.83,8.72,122.63"/></clipPath><radialGradient id="radial-gradient" cx="2685.59" cy="3097.82" r="0.61" gradientTransform="matrix(453.82, 0, 0, -453.82, -1218647.36, 1405911.28)" gradientUnits="userSpaceOnUse"><stop offset="0" stop-color="#aeb2d5"/><stop offset="0.3" stop-color="#aeb2d5"/><stop offset="0.75" stop-color="#484c89"/><stop offset="1" stop-color="#484c89"/></radialGradient><clipPath id="clip-path-2" transform="translate(-8.72 -12.54)"><rect class="cls-1" width="436.02" height="245.26"/></clipPath></defs><g id="Layer_2" data-name="Layer 2"><g id="desktop"><g id="g3440"><g class="cls-2"><g id="g3442"><g id="g3448"><g id="g3450"><path id="path3462" class="cls-3" d="M8.72,122.63c0,60.8,93.7,110.1,209.29,110.1h0c115.59,0,209.29-49.3,209.29-110.1h0c0-60.8-93.7-110.09-209.29-110.09h0C102.42,12.54,8.72,61.83,8.72,122.63" transform="translate(-8.72 -12.54)"/></g></g></g></g></g><g id="g3464"><g class="cls-4"><g id="g3466"><g id="g3472"><path id="path3474" class="cls-5" d="M218,224.55c111.07,0,201.12-45.63,201.12-101.92S329.08,20.71,218,20.71,16.9,66.34,16.9,122.63s90,101.92,201.11,101.92" transform="translate(-8.72 -12.54)"/></g></g></g></g><g id="g3476"><g class="cls-4"><g id="g3478"><g id="g3484"><path id="path3486" d="M122.43,135.27c9.13,0,15.95-1.69,20.26-5s7.22-9,8.77-16.92c1.44-7.42.89-12.6-1.63-15.4s-8.16-4.31-16.58-4.31H118.66l-8.09,41.64ZM74.69,186.55a2.27,2.27,0,0,1-1.75-.82,2.29,2.29,0,0,1-.48-1.88L93.91,73.52a2.26,2.26,0,0,1,2.23-1.84h46.21c14.53,0,25.34,3.94,32.14,11.72s8.94,18.76,6.27,32.49A50.25,50.25,0,0,1,165,144.16a44.89,44.89,0,0,1-16.83,10.09c-6.06,2-13.84,3-23.13,3H106.3L101,184.72a2.28,2.28,0,0,1-2.23,1.83Z" transform="translate(-8.72 -12.54)"/></g><g id="g3488"><path id="path3490" class="cls-6" d="M120.53,95.9h12.72c10.16,0,13.69,2.23,14.89,3.56,2,2.21,2.36,6.86,1.09,13.45-1.44,7.38-4.1,12.61-7.92,15.55S131.05,133,122.43,133h-9.11Zm21.82-26.49H96.14a4.53,4.53,0,0,0-4.46,3.67L70.23,183.42a4.58,4.58,0,0,0,1,3.75,4.52,4.52,0,0,0,3.5,1.65h24a4.55,4.55,0,0,0,4.46-3.67l5-25.66H125c9.53,0,17.55-1,23.83-3.09a47.09,47.09,0,0,0,17.68-10.58A52.46,52.46,0,0,0,183,116.33c2.82-14.46.53-26-6.78-34.42s-18.64-12.5-33.85-12.5m-34.54,68.13h14.62q14.53,0,21.65-5.48t9.6-18.28q2.4-12.3-2.17-17.36t-18.26-5.06H116.79l-9,46.18M142.35,74q20.86,0,30.43,11t5.75,30.56a47.87,47.87,0,0,1-15.1,27,42.55,42.55,0,0,1-16,9.6Q138.64,155,125,155H104.43l-5.7,29.33h-24L96.14,74h46.21" transform="translate(-8.72 -12.54)"/></g><g id="g3492"><path id="path3494" d="M235.86,157.22a2.28,2.28,0,0,1-2.23-2.7l9.49-48.82c.9-4.64.68-8-.63-9.38-.8-.86-3.2-2.31-10.3-2.31H215l-11.93,61.37a2.27,2.27,0,0,1-2.23,1.84H177a2.28,2.28,0,0,1-1.76-.83,2.26,2.26,0,0,1-.47-1.87L196.22,44.19a2.27,2.27,0,0,1,2.23-1.84H222.3a2.28,2.28,0,0,1,1.75.82,2.33,2.33,0,0,1,.48,1.88l-5.18,26.63h18.49c14.08,0,23.63,2.48,29.19,7.59s7.44,13.55,5.26,24.77l-10,51.34a2.28,2.28,0,0,1-2.23,1.84Z" transform="translate(-8.72 -12.54)"/></g><g id="g3496"><path id="path3498" class="cls-6" d="M222.3,40.08H198.45A4.55,4.55,0,0,0,194,43.75L172.55,154.08a4.53,4.53,0,0,0,4.46,5.41h23.84a4.53,4.53,0,0,0,4.46-3.67l11.57-59.54h15.31c7.09,0,8.58,1.52,8.64,1.58.43.46,1,2.61.06,7.41l-9.49,48.81a4.55,4.55,0,0,0,4.46,5.41h24.23a4.53,4.53,0,0,0,4.45-3.67l10-51.35c2.34-12,.34-21.09-5.95-26.87-6-5.51-16-8.19-30.73-8.19H222.1l4.65-23.92a4.53,4.53,0,0,0-4.45-5.41m0,4.54L216.6,74h21.24q20,0,27.66,7t4.56,22.67l-10,51.34H235.86l9.49-48.82q1.62-8.32-1.19-11.36t-12-3H213.13L200.85,155H177L198.45,44.62H222.3" transform="translate(-8.72 -12.54)"/></g><g id="g3500"><path id="path3502" d="M310,135.27c9.13,0,16-1.69,20.27-5s7.21-9,8.76-16.92c1.44-7.42.89-12.6-1.63-15.4s-8.16-4.31-16.58-4.31H306.25l-8.09,41.64Zm-47.74,51.28a2.25,2.25,0,0,1-2.22-2.7L281.5,73.52a2.27,2.27,0,0,1,2.23-1.84H330c14.52,0,25.33,3.94,32.13,11.72s8.94,18.76,6.27,32.49a50.25,50.25,0,0,1-15.79,28.27,44.82,44.82,0,0,1-16.83,10.09c-6.06,2-13.84,3-23.12,3H293.89l-5.34,27.5a2.27,2.27,0,0,1-2.23,1.83Z" transform="translate(-8.72 -12.54)"/></g><g id="g3504"><path id="path3506" class="cls-6" d="M308.12,95.9h12.72c10.16,0,13.69,2.23,14.89,3.56,2,2.21,2.37,6.86,1.09,13.45-1.44,7.38-4.1,12.61-7.92,15.55S318.64,133,310,133h-9.11ZM330,69.41H283.73a4.54,4.54,0,0,0-4.46,3.67L257.83,183.42a4.53,4.53,0,0,0,4.45,5.4h24a4.55,4.55,0,0,0,4.46-3.67l5-25.66h16.85c9.52,0,17.54-1,23.82-3.09a47.21,47.21,0,0,0,17.69-10.58,52.62,52.62,0,0,0,16.46-29.49c2.81-14.46.52-26-6.79-34.42S345.16,69.41,330,69.41M295.4,137.54H310q14.53,0,21.65-5.48t9.61-18.28q2.39-12.3-2.18-17.36t-18.26-5.06H304.38l-9,46.18M330,74q20.85,0,30.42,11t5.75,30.56a47.93,47.93,0,0,1-15.09,27,42.51,42.51,0,0,1-16,9.6q-8.8,2.86-22.42,2.86H292l-5.7,29.33h-24L283.73,74H330" transform="translate(-8.72 -12.54)"/></g></g></g></g></g></g></svg>