<svg xmlns="http://www.w3.org/2000/svg" xmlns:xlink="http://www.w3.org/1999/xlink" viewBox="0 0 2060 1240"><defs><style>.cls-1{fill:none;}.cls-2{clip-path:url(#clip-path);}.cls-3{fill:#fff;}.cls-4{clip-path:url(#clip-path-2);}.cls-5,.cls-6,.cls-7,.cls-8{opacity:0.075;}.cls-5{fill:url(#linear-gradient);}.cls-6{fill:url(#linear-gradient-2);}.cls-7{fill:url(#linear-gradient-3);}.cls-8{fill:url(#linear-gradient-4);}.cls-9{fill:url(#linear-gradient-5);}</style><rect class="cls-1" width="2071.78" height="724.27"/><clipPath id="clip-path-2" ><rect class="cls-1" width="2071.78" height="1275.5" /></clipPath><linearGradient id="linear-gradient" x1="-37.88" y1="975.54" x2="-44.9" y2="334.33" gradientUnits="userSpaceOnUse"><stop offset="0.02" stop-color="#0171fb"/><stop offset="0.6" stop-color="#0171fb"/></linearGradient><linearGradient id="linear-gradient-2" x1="536.06" y1="637.75" x2="2071.78" y2="637.75" xlink:href="#linear-gradient"/><linearGradient id="linear-gradient-3" x1="3363.53" y1="-1947.16" x2="2261.49" y2="-558.82" gradientTransform="matrix(1, 0, 0, -1, -1582.51, -829.41)" xlink:href="#linear-gradient"/><linearGradient id="linear-gradient-4" x1="2047.5" y1="-1793.91" x2="1582.66" y2="-1208.31" gradientTransform="matrix(1, 0, 0, -1, -1582.51, -829.41)" xlink:href="#linear-gradient"/><linearGradient id="linear-gradient-5" x1="291.58" y1="775.37" x2="2363.36" y2="775.37" gradientUnits="userSpaceOnUse"><stop offset="0.02" stop-color="#0171fb"/><stop offset="0.8" stop-color="#0171fb"/></linearGradient></defs><g id="Layer_2" data-name="Layer 2"><g id="desktop"><g class="cls-2"><rect class="cls-3"  width="2071.78" height="1275.5"/><g class="cls-4"><path class="cls-5" d="M-291.58,642.82-54,334.43A420.79,420.79,0,0,1,46.51,392.78c179,140,215.26,396.6,85.08,580.9Z" /><path class="cls-6" d="M2071.78,0V1275.5H1360.09c-1.79-47.58,2.76-92.11,38.76-143,56.15-79.28,140-148.39,206.77-219,96.47-102,209.85-175.25,242.16-321.86,26.13-118.58-5.38-263-110.6-333.82-102.46-69-249.8-31.7-358.64.64C1072.85,349.37,737.32,258.24,536.06,0Z" /><path class="cls-7" d="M404.21-52.47l-2.42,2.24C703,278.13,805.44,263.61,1052.84,228.51c80.35-11.4,180.35-25.58,307.18-29.73,75.85-2.48,140.55,5.62,197.72,24.76,133.15,44.59,215.77,158.52,215.62,297.34-.08,63.51-16.29,129.82-46.9,191.74-29.13,58.92-75.18,104-119.72,147.49-26.48,25.88-53.85,52.65-77.74,82.27-47.53,59-80.83,130.49-96.29,206.9-16.41,81.08-14.78,166.18,4.59,239.64l3.18-.85c-19.24-73-20.86-157.54-4.55-238.13,15.36-75.88,48.43-146.93,95.62-205.47,23.77-29.47,51.07-56.17,77.48-82,44.73-43.74,91-89,120.37-148.4,30.83-62.37,47.17-129.18,47.25-193.21.15-140.29-83.33-255.43-217.87-300.49-57.55-19.27-122.59-27.41-198.87-24.92-127,4.15-227.1,18.35-307.53,29.76C806.2,260.15,704.29,274.61,404.21-52.47Z" /><path class="cls-8" d="M-93.25,453.05l0,3.31c184.16,1.06,327.33,53.05,425.54,154.53C473,756.33,470.82,955.24,470.78,957.23l3.29.07c0-2,2.3-202.24-139.41-348.69C235.81,506.45,91.84,454.11-93.25,453.05Z" /></g></g>></g></g></svg>