<svg xmlns="http://www.w3.org/2000/svg" viewBox="0 0 421.75 375.66"><defs><style>.cls-1{fill:#61d9fa;}.cls-2{fill:#fefefe;}</style></defs><g id="Layer_2" data-name="Layer 2"><g id="desktop"><path class="cls-1" d="M210.89,148.53a39.4,39.4,0,0,0-39.35,39.3,39.27,39.27,0,0,0,78.54.49A39.44,39.44,0,0,0,210.89,148.53Zm0,0a39.4,39.4,0,0,0-39.35,39.3,39.27,39.27,0,0,0,78.54.49A39.44,39.44,0,0,0,210.89,148.53Zm0,0a39.4,39.4,0,0,0-39.35,39.3,39.27,39.27,0,0,0,78.54.49A39.44,39.44,0,0,0,210.89,148.53Zm0,0a39.4,39.4,0,0,0-39.35,39.3,39.27,39.27,0,0,0,78.54.49A39.44,39.44,0,0,0,210.89,148.53Zm0,0a39.4,39.4,0,0,0-39.35,39.3,39.27,39.27,0,0,0,78.54.49A39.44,39.44,0,0,0,210.89,148.53Zm0,0a39.4,39.4,0,0,0-39.35,39.3,39.27,39.27,0,0,0,78.54.49A39.44,39.44,0,0,0,210.89,148.53ZM415,166.59c-5.6-9-13.4-15.76-21.9-21.79-17.35-12.24-36.67-20.37-56.81-26.63-2.31-.76-3.08-1.53-2.47-4.22,3.4-15.75,5.76-31.62,5.7-48.85.17-12.3-1.31-25.36-6-38C326.65,8.89,312.65-.82,294,.05c-10.37.5-20.09,3.79-29.47,8.13C245.36,17,228.78,29.69,213.25,43.86c-2,1.86-3.13,1.86-5.05,0a218.78,218.78,0,0,0-25.8-20.75C167,12.62,151,3.57,132.13,1c-18.39-2.58-33.21,4-41.88,20.91-6.37,12.46-8.13,26-8.51,39.74C81.35,79,83.6,96.05,87.39,113c.94,4.11.94,4.17-3.18,5.48A223.57,223.57,0,0,0,40,137.55c-11.91,6.92-22.89,14.93-31.28,26.13C-2.74,179-2.9,195.9,8.19,211.38c6.75,9.44,15.48,16.57,25.08,22.83C49.52,244.75,67.19,252,85.58,257.76c2.25.71,3,1.53,2.47,4-4.67,20.81-7.19,41.77-5.16,63.12,1.1,11.15,3.4,22,9.28,31.84,7.24,12.13,17.67,18.72,32.11,18.94,12.95.16,24.75-3.9,36.11-9.44,18.12-8.84,33.93-21.08,48.74-34.69,1.54-1.43,2.31-1.71,4.07-.11a224.63,224.63,0,0,0,26.51,21.29c15.92,10.82,32.49,20.09,52.09,22.4,16,1.86,29.86-4.12,38.14-18.12,7.19-12,9.34-25.35,10.05-39,.93-19-1.59-37.7-5.66-56.2-.6-2.69.17-3.41,2.53-4.17A222,222,0,0,0,380.61,239c12.29-7.08,23.71-15.21,32.32-26.73C423.91,197.71,424.68,182.06,415,166.59ZM225.71,58.35c17.29-15.54,35.35-29.86,57.91-37a40.19,40.19,0,0,1,12.46-2c8.78-.28,14.6,3.95,18.28,11.74,3.62,7.63,5,15.81,5.7,24.15,1.43,18.39-1,36.45-4.77,54.4-.39,1.86-1,2.25-2.86,1.81-16.57-4.12-33.42-6.59-50.38-8.67a3.94,3.94,0,0,1-3-1.6A408.89,408.89,0,0,0,225.77,61C224.78,60.05,224.56,59.39,225.71,58.35ZM112.37,243.49c3.07-10.6,6.69-21,11.08-32.06,7.25,14,14.93,27.11,23.5,40.51-8.35-1.05-15.81-2.47-23.28-4-3.35-.66-6.64-1.54-10-2.19C112.15,245.46,112,244.86,112.37,243.49ZM115,129.76c10.37-2.2,20.75-4.29,31.89-5.93-8.45,13.34-16.14,26.62-23.49,41.05-2.2-5.81-4.12-10.86-5.93-16-1.7-4.88-3.18-9.93-4.94-14.82C111.6,131.46,112.09,130.36,115,129.76Zm26.4,74.37c-2.36-4.61-4.61-9.33-7-14a4,4,0,0,1-.06-3.95,479.88,479.88,0,0,1,36.5-63.45,4,4,0,0,1,3.4-2c12.25-.76,24.43-1.64,36.45-1.26,12.57-.33,24.76.5,37,1.21a3.57,3.57,0,0,1,3,1.7A461.77,461.77,0,0,1,287.41,186a4,4,0,0,1,0,3.67A468.32,468.32,0,0,1,251,253.15a4.43,4.43,0,0,1-3.62,2.19c-17.18,1.32-34.36,1.54-51.54,1.15-7.3-.22-14.65-.82-21.95-1.15-1.6-.05-2.25-1-3-2.14A434.93,434.93,0,0,1,141.4,204.13Zm133.22-80.3c11.25,1.59,21.68,3.68,32,5.93,2.74.55,3.12,1.42,2.3,4.06q-4.53,14.66-10,29a11.81,11.81,0,0,1-.82,1.43C290.92,150.34,283.29,137.17,274.62,123.83ZM298.27,211c2.14,5.71,4.23,10.81,6,16,1.86,5.33,3.45,10.71,5.21,16,.33,1.15.71,2.2-.88,2.58-10.92,2.58-21.9,4.78-33.86,6.42C283.45,238.44,291,225.15,298.27,211Zm-89-136.45c.83-1,1.38-1.48,2.53-.28,7.57,8.18,15,16.47,21.84,25.31a4.23,4.23,0,0,1,.39,1c-15.64-.71-31-.66-46.71-.11A111.82,111.82,0,0,1,196.46,89C200.63,84.09,205,79.37,209.24,74.54ZM105.83,34c2.75-7,6.7-13,15-14.11a39.78,39.78,0,0,1,16.63,1.6c15.2,4.5,28.27,13,40.78,22.28,6,4.45,11.58,9.39,17.18,14.27,1.48,1.26,1.37,2,.11,3.3A364,364,0,0,0,163,100.56a4.89,4.89,0,0,1-3.62,2.19c-17,2-33.82,4.56-50.39,8.73-1.48.38-2.31.27-2.69-1.65-3.13-14.43-5.33-29-5.44-44.29C101,55.11,101.83,44.29,105.83,34ZM94.09,237.45c-.44,1.59-.72,2.91-3.13,2.14C74.82,234.21,59.07,228,44.69,218.73c-8.07-5.21-15.64-10.92-21.3-18.88s-5.76-15.1-.44-23.16c5.55-8.35,13.34-14.22,21.57-19.49C58.9,148,74.6,141.67,90.85,136.45c.38-.16.77-.22,1.54-.44,1.15-.11,1,1.21,1.26,2,4,13.45,8.84,26.68,14.16,39.69a25.45,25.45,0,0,0,1.81,4.12c2.69,4.22,2.14,8.12.11,12.62A317.74,317.74,0,0,0,94.09,237.45Zm101.76,80.3c-16.58,14.82-33.87,28.49-55.16,36.06a54,54,0,0,1-13.5,2.86c-9,.71-15.32-2.91-19.49-11.2-3.13-6.09-4.5-12.63-5.49-19.32-.82-5.38-.77-10.82-.82-17.9-.17-13,2.14-27.33,5-41.66.44-2.3,1.43-2.52,3.41-2a370.59,370.59,0,0,0,48.9,8.35,5.83,5.83,0,0,1,4.5,2.52,428,428,0,0,0,32.5,39.19C196.73,315.72,197.28,316.49,195.85,317.75Zm16.69-16.69c-.83.94-1.43,1.87-2.8.39-7.41-8.07-14.71-16.19-21.46-24.87-.22-.27-.39-.6-.88-1.37a403.41,403.41,0,0,0,47.42,0c-3.51,4.28-6.31,8-9.38,11.58C221.21,291.57,216.87,296.29,212.54,301.06Zm103.35,41c-4.22,10.76-9.93,14.55-21.46,14.06a49.94,49.94,0,0,1-14.93-3.41c-15-5.54-28.05-14.38-40.4-24.2-4.33-3.46-8.39-7.19-12.68-10.76-1.31-1.1-1.59-1.81-.22-3.24a373.28,373.28,0,0,0,32.66-39.46,4.72,4.72,0,0,1,3.74-2.14,349.41,349.41,0,0,0,49.18-8.46c2.47-.6,3.34-.33,3.89,2.36,2.86,14.22,5.11,28.43,5.11,43C320.78,320.82,319.9,331.69,315.89,342.06ZM396.3,202.43c-6.75,8.34-15.47,14.21-24.64,19.54-12.85,7.52-26.57,12.84-40.67,17.45-1.92.66-2.53.06-3-1.7a407.69,407.69,0,0,0-17.9-48.25,3.71,3.71,0,0,1,0-3.4,401.71,401.71,0,0,0,17.57-47.75c.44-1.48.6-2.8,2.91-2,17.45,5.65,34.36,12.57,49.62,22.94,7.68,5.22,14.82,11.09,19.7,19.21a21.1,21.1,0,0,1,3,9.22C402.45,193.48,399.82,198.15,396.3,202.43ZM210.67,227.07a39,39,0,0,0,39.41-38.75,39.27,39.27,0,1,0-78.54-.49A38.86,38.86,0,0,0,210.67,227.07Zm.22-78.54a39.4,39.4,0,0,0-39.35,39.3,39.27,39.27,0,0,0,78.54.49A39.44,39.44,0,0,0,210.89,148.53Zm0,0a39.4,39.4,0,0,0-39.35,39.3,39.27,39.27,0,0,0,78.54.49A39.44,39.44,0,0,0,210.89,148.53Zm0,0a39.4,39.4,0,0,0-39.35,39.3,39.27,39.27,0,0,0,78.54.49A39.44,39.44,0,0,0,210.89,148.53Zm0,0a39.4,39.4,0,0,0-39.35,39.3,39.27,39.27,0,0,0,78.54.49A39.44,39.44,0,0,0,210.89,148.53Zm0,0a39.4,39.4,0,0,0-39.35,39.3,39.27,39.27,0,0,0,78.54.49A39.44,39.44,0,0,0,210.89,148.53Zm0,0a39.4,39.4,0,0,0-39.35,39.3,39.27,39.27,0,0,0,78.54.49A39.44,39.44,0,0,0,210.89,148.53Z"/><path class="cls-2" d="M250.08,188.32a39.27,39.27,0,0,1-78.54-.49,39.27,39.27,0,1,1,78.54.49Z"/><path class="cls-1" d="M250.08,188.32a39.27,39.27,0,0,1-78.54-.49,39.27,39.27,0,1,1,78.54.49Z"/></g></g></svg>