<svg xmlns="http://www.w3.org/2000/svg" viewBox="0 0 409.56 307"><defs><style>.cls-1{fill:#cf649a;}</style></defs><g id="Layer_2" data-name="Layer 2"><g id="desktop"><path class="cls-1" d="M352.57,176.29a84.38,84.38,0,0,0-37.12,8.64c-3.84-7.6-7.68-14.24-8.32-19.2-.72-5.76-1.6-9.28-.72-16.16s4.88-16.64,4.88-17.44-.88-4.24-9.12-4.32-15.36,1.6-16.16,3.76a91.88,91.88,0,0,0-3.44,12.24c-1.44,7.52-16.48,34.16-25,48.16-2.8-5.44-5.2-10.24-5.68-14.08-.72-5.76-1.6-9.28-.72-16.16S256,145.09,256,144.29s-.88-4.24-9.12-4.32-15.36,1.6-16.16,3.76S229.05,151,227.29,156s-21.68,49.44-26.88,61c-2.64,5.92-5,10.64-6.64,13.84s-.08.24-.24.56l-2.24,4.24v.08c-1.12,2-2.32,3.92-2.88,3.92-.4,0-1.2-5.36.16-12.72,3-15.44,10.16-39.52,10.08-40.4,0-.4,1.36-4.64-4.64-6.8-5.84-2.16-7.92,1.44-8.4,1.44s-.88,1.28-.88,1.28,6.48-27.12-12.4-27.12c-11.84,0-28.16,12.88-36.24,24.64-5.12,2.8-16,8.72-27.52,15-4.4,2.4-9,5-13.28,7.28l-.88-1c-22.88-24.4-65.2-41.68-63.44-74.48.64-11.92,4.8-43.36,81.28-81.44,62.64-31.2,112.8-22.64,121.52-3.6,12.4,27.2-26.8,77.76-91.92,85-24.8,2.8-37.84-6.8-41.12-10.4-3.44-3.76-3.92-3.92-5.2-3.2-2.08,1.12-.8,4.48,0,6.48,1.92,5,9.92,14,23.52,18.48,11.92,3.92,41,6.08,76.24-7.52,39.44-15.28,70.24-57.68,61.2-93.12-9.2-36.08-69-47.92-125.6-27.84C97.21,21.73,60.73,40.45,34.49,65,3.29,94.13-1.67,119.57.41,130.13c7.28,37.68,59.2,62.24,80,80.4-1,.56-2,1.12-2.88,1.6-10.4,5.12-50,25.84-59.92,47.76-11.2,24.8,1.76,42.64,10.4,45C54.73,312.37,82.09,299,96.89,277s13-50.56,6.16-63.6l-.24-.48,8.16-4.8c5.28-3.12,10.48-6,15-8.48-2.56,7-4.4,15.2-5.36,27.2-1.12,14.08,4.64,32.32,12.24,39.52,3.36,3.12,7.36,3.2,9.84,3.2,8.8,0,12.8-7.28,17.2-16,5.44-10.64,10.24-23,10.24-23s-6,33.36,10.4,33.36c6,0,12-7.76,14.72-11.76v.08s.16-.24.48-.8.66-1,1-1.52v-.16c2.4-4.16,7.76-13.68,15.76-29.44,10.32-20.32,20.24-45.76,20.24-45.76a146,146,0,0,0,3.92,16.48c1.76,6.08,5.6,12.72,8.56,19.2-2.4,3.36-3.84,5.28-3.84,5.28l.08.08c-1.92,2.56-4.08,5.28-6.32,8-8.16,9.76-17.92,20.88-19.2,24.08-1.52,3.76-1.2,6.56,1.76,8.8,2.16,1.6,6,1.92,10.08,1.6a44.91,44.91,0,0,0,15-3.44,52.09,52.09,0,0,0,13-6.8c8-5.92,12.88-14.32,12.4-25.52-.24-6.16-2.24-12.24-4.72-18,.72-1,1.44-2.08,2.16-3.2a337.62,337.62,0,0,0,22.4-38.8,146,146,0,0,0,3.92,16.48c1.52,5.2,4.56,10.88,7.28,16.48-11.84,9.68-19.28,20.88-21.84,28.24-4.72,13.6-1,19.76,5.92,21.2,3.12.64,7.6-.8,11-2.24a49.63,49.63,0,0,0,13.84-7.12c8-5.92,15.68-14.16,15.28-25.28a48.46,48.46,0,0,0-3.44-15c10.08-4.16,23.12-6.56,39.68-4.56,35.6,4.16,42.64,26.4,41.28,35.68s-8.8,14.4-11.28,16-3.28,2.08-3,3.2c.32,1.68,1.44,1.6,3.6,1.28,3-.48,18.72-7.6,19.36-24.72,1-22-19.92-46-57-45.76ZM78,268.85c-11.76,12.88-28.32,17.76-35.36,13.6-7.6-4.4-4.64-23.36,9.84-37,8.8-8.32,20.24-16,27.76-20.72,1.68-1,4.24-2.56,7.28-4.4a8.31,8.31,0,0,1,.8-.48c.56-.32,1.2-.72,1.84-1.12,5.36,19.52.24,36.64-12.16,50.16Zm86-58.48c-4.08,10-12.72,35.68-17.92,34.24-4.48-1.2-7.2-20.64-.88-39.84,3.2-9.68,10-21.2,14-25.68,6.48-7.2,13.52-9.6,15.28-6.64C176.57,176.29,166.57,204.13,164,210.37Zm71,33.92c-1.76.88-3.36,1.52-4.08,1-.56-.32.72-1.52.72-1.52s8.88-9.52,12.4-13.92c2-2.56,4.4-5.52,7-8.88v1c0,11.52-11,19.2-16,22.32Zm54.72-12.48c-1.28-1-1.12-3.92,3.2-13.2a49.45,49.45,0,0,1,12.16-15.68,19.81,19.81,0,0,1,1.2,6.88C306.17,224.21,295.93,229.57,289.69,231.81Z"/></g></g></svg>