<svg id="Layer_1" data-name="Layer 1" xmlns="http://www.w3.org/2000/svg" xmlns:xlink="http://www.w3.org/1999/xlink" viewBox="0 0 282.5 235"><defs><style>.cls-1{fill:url(#linear-gradient);}.cls-2{fill:url(#linear-gradient-2);}.cls-3{fill:url(#linear-gradient-3);}.cls-4{fill:url(#linear-gradient-4);}.cls-5{fill:url(#linear-gradient-5);}.cls-6{fill:url(#linear-gradient-6);}.cls-7{fill:url(#linear-gradient-7);}.cls-8{fill:url(#linear-gradient-8);}</style><linearGradient id="linear-gradient" x1="7.6" y1="116.38" x2="129.11" y2="116.38" gradientUnits="userSpaceOnUse"><stop offset="0.02" stop-color="#0171fb"/><stop offset="0.8" stop-color="#0171fb"/></linearGradient><linearGradient id="linear-gradient-2" x1="245.63" y1="116.38" x2="275.38" y2="116.38" xlink:href="#linear-gradient"/><linearGradient id="linear-gradient-3" x1="183.45" y1="116.38" x2="245.63" y2="116.38" xlink:href="#linear-gradient"/><linearGradient id="linear-gradient-4" x1="245.63" y1="65.44" x2="275.39" y2="65.44" xlink:href="#linear-gradient"/><linearGradient id="linear-gradient-5" x1="245.63" y1="167.39" x2="275.39" y2="167.39" xlink:href="#linear-gradient"/><linearGradient id="linear-gradient-6" x1="177.63" y1="117.23" x2="206.86" y2="117.23" xlink:href="#linear-gradient"/><linearGradient id="linear-gradient-7" x1="105.53" y1="117.23" x2="134.8" y2="117.23" xlink:href="#linear-gradient"/><linearGradient id="linear-gradient-8" x1="143.73" y1="113.55" x2="168.68" y2="113.55" xlink:href="#linear-gradient"/></defs><title>blue 2</title><path class="cls-1" d="M129.11,5.08H7.6V227.67H129.11V145.53L99.36,117.14,129.11,89ZM89,189.55H50.4v-55H89Zm0-91.32H50.4v-55H89Z"/><path class="cls-2" d="M245.63,29.51V59.29h29.75V29.51Zm0,144v29.77h29.75V173.47Z"/><polygon class="cls-3" points="216.84 59.29 216.84 173.47 245.63 173.47 245.63 203.24 183.45 203.24 183.45 145.35 213.03 117.14 183.45 89.07 183.45 29.51 245.63 29.51 245.63 59.29 216.84 59.29"/><rect class="cls-4" x="245.63" y="29.52" width="29.76" height="71.84"/><rect class="cls-5" x="245.63" y="131.54" width="29.76" height="71.7"/><polygon class="cls-6" points="206.86 117.14 183.45 139.5 177.63 145.05 177.63 135.58 184.71 128.49 196.57 117.18 184.71 105.9 177.63 98.81 177.63 89.41 183.45 94.93 206.86 117.14"/><polygon class="cls-7" points="127.71 105.9 115.82 117.18 127.71 128.49 134.8 135.58 134.8 145.05 129.11 139.63 105.53 117.14 129.11 94.79 134.8 89.41 134.8 98.81 127.71 105.9"/><polygon class="cls-8" points="168.68 65.25 150.23 161.85 143.73 161.85 162.18 65.25 168.68 65.25"/></svg>