<svg xmlns="http://www.w3.org/2000/svg" xmlns:xlink="http://www.w3.org/1999/xlink" viewBox="0 0 2060 1250"><defs><style>.cls-1{fill:none;}.cls-2{clip-path:url(#clip-path);}.cls-3{fill:#fff;}.cls-4{clip-path:url(#clip-path-2);}.cls-5,.cls-6,.cls-7,.cls-8{opacity:0.075;}.cls-5{fill:url(#linear-gradient);}.cls-6{fill:url(#linear-gradient-2);}.cls-7{fill:url(#linear-gradient-3);}.cls-8{fill:url(#linear-gradient-4);}.cls-9{fill:url(#linear-gradient-5);}</style><rect class="cls-1" width="2071.78" height="653.49"/><clipPath id="clip-path-2" ><rect class="cls-1" width="2071.78" height="1266.09"/></clipPath><linearGradient id="linear-gradient" x1="-37.91" y1="968.36" x2="-44.87" y2="331.87" gradientUnits="userSpaceOnUse"><stop offset="0.02" stop-color="#0171fb"/><stop offset="0.6" stop-color="#0171fb"/></linearGradient><linearGradient id="linear-gradient-2" x1="536.06" y1="633.04" x2="2071.78" y2="633.04" xlink:href="#linear-gradient"/><linearGradient id="linear-gradient-3" x1="3361.62" y1="953" x2="2264.76" y2="2334.82" gradientTransform="matrix(1, 0, 0, -1, -1582.51, 2062.03)" xlink:href="#linear-gradient"/><linearGradient id="linear-gradient-4" x1="2046.03" y1="1103.42" x2="1583" y2="1686.74" gradientTransform="matrix(1, 0, 0, -1, -1582.51, 2062.03)" xlink:href="#linear-gradient"/><linearGradient id="linear-gradient-5" x1="291.58" y1="704.2" x2="2363.36" y2="704.2" gradientUnits="userSpaceOnUse"><stop offset="0.02" stop-color="#0171fb"/><stop offset="0.8" stop-color="#0171fb"/></linearGradient></defs><g id="Layer_2" data-name="Layer 2"><g id="desktop"><g class="cls-2"><rect class="cls-3"  width="2071.78" height="1266.09"/><g class="cls-4"><path class="cls-5" d="M-291.58,638.08-54,332A421.66,421.66,0,0,1,46.51,389.88c179,139,215.26,393.68,85.08,576.62Z" /><path class="cls-6" d="M2071.78,0V1266.09H1360.09c-1.79-47.22,2.76-91.43,38.76-141.9,56.15-78.7,140-147.3,206.77-217.37,96.47-101.23,209.85-174,242.16-319.48,26.13-117.71-5.38-261-110.6-331.36-102.46-68.48-249.8-31.47-358.64.64C1072.85,346.79,737.32,256.33,536.06,0Z" /><path class="cls-7" d="M404.21-52.09l-2.42,2.24C703,276.08,805.44,261.66,1052.84,226.82c80.35-11.31,180.35-25.39,307.18-29.51,75.85-2.46,140.55,5.58,197.72,24.58,133.15,44.26,215.77,157.35,215.62,295.14-.08,63.05-16.29,128.87-46.9,190.33-29.13,58.49-75.18,103.19-119.72,146.41-26.48,25.69-53.85,52.25-77.74,81.66-47.53,58.51-80.83,129.53-96.29,205.37-16.41,80.48-14.78,165,4.59,237.88l3.18-.85c-19.24-72.43-20.86-156.38-4.55-236.37,15.36-75.33,48.43-145.85,95.62-204,23.77-29.26,51.07-55.76,77.48-81.38,44.73-43.42,91-88.31,120.37-147.3,30.83-61.92,47.17-128.24,47.25-191.79.15-139.26-83.33-253.55-217.87-298.27-57.55-19.13-122.59-27.21-198.87-24.75-127,4.13-227.1,18.22-307.53,29.55C806.2,258.23,704.29,272.58,404.21-52.09Z" /><path class="cls-8" d="M-93.25,449.71l0,3.29c184.16,1.05,327.33,52.66,425.54,153.38C473,750.75,470.82,948.2,470.78,950.17l3.29.07c0-2,2.3-200.75-139.41-346.12C235.81,502.72,91.84,450.76-93.25,449.71Z"/></g></g></g></g></svg>