<svg xmlns="http://www.w3.org/2000/svg" viewBox="0 0 325.11 325.11"><defs><style>.cls-1{fill:#007acc;}.cls-2{fill:#fff;}</style></defs><g id="Layer_2" data-name="Layer 2"><g id="desktop"><path class="cls-1" d="M0,162.56V0H325.11V325.11H0"/><path class="cls-2" d="M71.28,163.13v13.24h42.27V296.66h30V176.37H185.8v-13c0-7.32,0-13.25-.32-13.41,0-.25-25.77-.33-57.06-.33l-56.9.25v13.33l-.24-.08Zm190-13.58a39.37,39.37,0,0,1,20.32,11.62c3,3.26,7.47,8.94,7.8,10.41,0,.49-14.06,10-22.6,15.28-.32.24-1.62-1.14-2.92-3.25-4.23-6-8.54-8.62-15.28-9.11-9.76-.65-16.26,4.47-16.26,13a12.83,12.83,0,0,0,1.47,6.18c2.19,4.47,6.25,7.15,18.85,12.67,23.25,10,33.33,16.59,39.42,26,6.91,10.57,8.45,27.15,3.82,39.59-5.2,13.57-17.88,22.75-36,25.76-5.69,1-18.7.81-24.79-.24-13-2.44-25.44-8.94-33.08-17.31-3-3.26-8.78-11.95-8.46-12.52l3.09-1.95,12.19-7.07,9.19-5.37,2.11,2.85c2.68,4.22,8.7,9.91,12.19,11.86,10.57,5.45,24.71,4.72,31.7-1.62a12.19,12.19,0,0,0,4.31-9.76,12.56,12.56,0,0,0-2.44-8.29c-2.6-3.57-7.8-6.5-22.43-13-16.83-7.15-24-11.7-30.64-18.69a46.09,46.09,0,0,1-8.94-16.26c-1.22-4.71-1.63-16.26-.49-20.89,3.49-16.25,15.77-27.63,33.32-30.88,5.69-1.14,19.1-.65,24.71.81l-.16.16Z"/></g></g></svg>