<svg id="logo" xmlns="http://www.w3.org/2000/svg" width="859.204" height="158.305" viewBox="0 0 859.204 158.305">
  <path id="Path_53" data-name="Path 53" d="M481.165,265.942h47.449l25.743,31.7,25.535-31.7H626.7l-49.579,49.574,56.6,58.087H586.913l-32.557-38.938-33.4,38.938H473.717l57.022-58.087Z" transform="translate(-473.717 -218.918)" fill="#e62b1e"/>
  <path id="Path_54" data-name="Path 54" d="M1088.694,248.033h21.494V309.52H1225.3V248.033h21.494V398.461H1225.3V327.4H1110.188v71.064h-21.494Zm-28.88,109.149c-5.749,10.214-11.7,20.427-26.6,29.79-18.511,11.7-42.338,15.108-60.423,15.108-61.066,0-91.278-35.109-91.278-79.791,0-35.535,17.654-51.916,27.873-59.574,6.381-5.108,24.253-18.94,62.764-18.94,10.849,0,37.024,1.489,57.237,14.044,15.959,10,23.407,22.554,27.448,29.364l-22.98,5.108c-3.4-5.959-7.022-12.344-16.386-18.513C1008.317,267.818,992.146,262.5,973,262.5c-35.743,0-68.94,16.81-68.94,59.152,0,14.894,4.253,30.21,15.53,42.765,10.217,10.427,27.663,19.15,54.684,19.15,23.193.214,38.724-5.745,47.874-12.977a50.664,50.664,0,0,0,15.112-18.091ZM716.237,248.243H854.964v18.513H737.511v44.892H851.773v17.663H737.511v50.637H860.282v18.513H716.237Zm-165.711,0H694.571v17.877H633.085V398.461H611.8V266.119H550.526Z" transform="translate(-387.585 -243.775)"/>
</svg>
